<svg width="288" height="349" viewBox="0 0 288 349" fill="none" xmlns="http://www.w3.org/2000/svg">
<rect x="69.2383" y="312.746" width="150" height="35.38" rx="17.69" fill="#24BF6F"/>
<path d="M126.234 335.936H119.194V324.624H120.698V334.624H126.234V335.936ZM132.608 335.936C132.576 335.787 132.55 335.611 132.528 335.408C132.507 335.195 132.491 335.013 132.48 334.864C132.15 335.216 131.744 335.499 131.264 335.712C130.784 335.915 130.304 336.016 129.824 336.016C129.472 336.016 129.147 335.957 128.848 335.84C128.56 335.712 128.31 335.541 128.096 335.328C127.894 335.104 127.734 334.843 127.616 334.544C127.499 334.235 127.44 333.899 127.44 333.536C127.44 332.704 127.728 332.064 128.304 331.616C128.891 331.168 129.67 330.944 130.64 330.944C130.928 330.944 131.227 330.96 131.536 330.992C131.856 331.024 132.171 331.067 132.48 331.12V330.864C132.48 330.181 132.315 329.653 131.984 329.28C131.654 328.907 131.179 328.72 130.56 328.72C130.187 328.72 129.803 328.784 129.408 328.912C129.024 329.04 128.662 329.2 128.32 329.392L127.856 328.288C128.198 328.053 128.608 327.867 129.088 327.728C129.579 327.579 130.096 327.504 130.64 327.504C131.675 327.504 132.47 327.781 133.024 328.336C133.579 328.891 133.856 329.691 133.856 330.736V333.968C133.856 334.32 133.867 334.683 133.888 335.056C133.92 335.429 133.963 335.723 134.016 335.936H132.608ZM132.48 332.16C132.256 332.117 132.016 332.091 131.76 332.08C131.515 332.059 131.296 332.048 131.104 332.048C129.6 332.048 128.848 332.539 128.848 333.52C128.848 333.925 128.966 334.24 129.2 334.464C129.446 334.688 129.776 334.8 130.192 334.8C130.566 334.8 130.955 334.715 131.36 334.544C131.766 334.373 132.139 334.149 132.48 333.872V332.16ZM141.292 335.936C141.228 335.669 141.185 335.403 141.164 335.136C140.3 335.776 139.436 336.096 138.572 336.096C138.124 336.096 137.735 336.011 137.404 335.84C137.084 335.669 136.823 335.44 136.62 335.152C136.417 334.853 136.268 334.507 136.172 334.112C136.076 333.717 136.028 333.296 136.028 332.848V327.696L137.452 327.568V332.784C137.452 333.072 137.473 333.344 137.516 333.6C137.569 333.856 137.649 334.08 137.756 334.272C137.873 334.453 138.028 334.597 138.22 334.704C138.423 334.811 138.668 334.864 138.956 334.864C139.276 334.864 139.623 334.795 139.996 334.656C140.38 334.507 140.759 334.309 141.132 334.064V327.696L142.556 327.568V333.968C142.556 334.277 142.561 334.608 142.572 334.96C142.593 335.301 142.641 335.627 142.716 335.936H141.292ZM150.6 335.936C150.526 335.627 150.478 335.301 150.456 334.96C150.446 334.608 150.44 334.277 150.44 333.968V330.816C150.44 330.528 150.414 330.256 150.36 330C150.318 329.744 150.238 329.525 150.12 329.344C150.014 329.152 149.859 329.003 149.656 328.896C149.464 328.789 149.224 328.736 148.936 328.736C148.563 328.736 148.163 328.827 147.736 329.008C147.31 329.189 146.899 329.429 146.504 329.728V335.936H145.08V327.696L146.36 327.568L146.488 328.672C147.406 327.893 148.344 327.504 149.304 327.504C149.763 327.504 150.152 327.589 150.472 327.76C150.792 327.931 151.054 328.165 151.256 328.464C151.47 328.752 151.624 329.093 151.72 329.488C151.816 329.883 151.864 330.304 151.864 330.752V333.968C151.864 334.277 151.87 334.608 151.88 334.96C151.902 335.301 151.95 335.627 152.024 335.936H150.6ZM160.555 335.312C160.16 335.579 159.707 335.776 159.195 335.904C158.693 336.032 158.187 336.096 157.675 336.096C157.045 336.096 156.485 335.995 155.995 335.792C155.515 335.579 155.109 335.285 154.779 334.912C154.448 334.528 154.197 334.075 154.027 333.552C153.856 333.019 153.771 332.432 153.771 331.792C153.771 331.173 153.851 330.603 154.011 330.08C154.181 329.557 154.432 329.104 154.763 328.72C155.093 328.336 155.504 328.037 155.995 327.824C156.485 327.611 157.056 327.504 157.707 327.504C158.261 327.504 158.768 327.579 159.227 327.728C159.685 327.877 160.091 328.064 160.443 328.288L159.963 329.408C159.536 329.184 159.141 329.019 158.779 328.912C158.416 328.795 158.064 328.736 157.723 328.736C156.933 328.736 156.315 329.003 155.867 329.536C155.429 330.059 155.211 330.811 155.211 331.792C155.211 332.229 155.259 332.64 155.355 333.024C155.461 333.397 155.621 333.723 155.835 334C156.048 334.267 156.315 334.48 156.635 334.64C156.965 334.789 157.349 334.864 157.787 334.864C158.192 334.864 158.587 334.805 158.971 334.688C159.355 334.56 159.723 334.395 160.075 334.192L160.555 335.312ZM167.773 335.936C167.698 335.627 167.65 335.301 167.629 334.96C167.618 334.608 167.613 334.277 167.613 333.968V330.816C167.613 330.528 167.586 330.256 167.533 330C167.49 329.744 167.41 329.525 167.293 329.344C167.186 329.152 167.032 329.003 166.829 328.896C166.637 328.789 166.397 328.736 166.109 328.736C165.736 328.736 165.336 328.827 164.909 329.008C164.482 329.189 164.072 329.429 163.677 329.728V335.936H162.253V324.016L163.677 323.888V328.672C164.594 327.893 165.528 327.504 166.477 327.504C166.936 327.504 167.325 327.589 167.645 327.76C167.965 327.931 168.226 328.165 168.429 328.464C168.642 328.752 168.797 329.093 168.893 329.488C168.989 329.883 169.037 330.304 169.037 330.752V333.968C169.037 334.277 169.042 334.608 169.053 334.96C169.074 335.301 169.122 335.627 169.197 335.936H167.773Z" fill="white"/>
<path d="M75.8103 278.094C75.0903 278.542 74.2503 278.91 73.2903 279.198C72.3303 279.486 71.2663 279.63 70.0983 279.63C68.6903 279.63 67.4583 279.398 66.4023 278.934C65.3623 278.47 64.4983 277.846 63.8103 277.062C63.1223 276.262 62.6103 275.334 62.2743 274.278C61.9383 273.222 61.7703 272.102 61.7703 270.918C61.7703 269.734 61.9383 268.614 62.2743 267.558C62.6103 266.486 63.1223 265.558 63.8103 264.774C64.4983 263.974 65.3623 263.342 66.4023 262.878C67.4583 262.414 68.6903 262.182 70.0983 262.182C71.2663 262.182 72.3303 262.326 73.2903 262.614C74.2503 262.902 75.0903 263.27 75.8103 263.718L74.6103 266.262C73.8583 265.862 73.0983 265.574 72.3303 265.398C71.5623 265.222 70.8823 265.134 70.2903 265.134C69.4743 265.134 68.7543 265.286 68.1303 265.59C67.5063 265.878 66.9863 266.286 66.5703 266.814C66.1543 267.326 65.8423 267.934 65.6343 268.638C65.4263 269.342 65.3223 270.102 65.3223 270.918C65.3223 271.734 65.4263 272.494 65.6343 273.198C65.8423 273.886 66.1543 274.494 66.5703 275.022C66.9863 275.534 67.5063 275.942 68.1303 276.246C68.7543 276.534 69.4743 276.678 70.2903 276.678C70.8823 276.678 71.5623 276.59 72.3303 276.414C73.0983 276.238 73.8583 275.95 74.6103 275.55L75.8103 278.094ZM83.5002 276.966C84.5082 276.966 85.2362 276.614 85.6842 275.91C86.1482 275.206 86.3802 274.278 86.3802 273.126C86.3802 271.974 86.1482 271.046 85.6842 270.342C85.2362 269.622 84.5082 269.262 83.5002 269.262C82.4922 269.262 81.7562 269.622 81.2922 270.342C80.8282 271.046 80.5962 271.974 80.5962 273.126C80.5962 274.278 80.8282 275.206 81.2922 275.91C81.7562 276.614 82.4922 276.966 83.5002 276.966ZM88.1322 277.806C87.6042 278.382 86.9482 278.83 86.1642 279.15C85.3802 279.47 84.4922 279.63 83.5002 279.63C82.5082 279.63 81.6202 279.47 80.8362 279.15C80.0522 278.83 79.3882 278.382 78.8442 277.806C78.3002 277.23 77.8842 276.55 77.5962 275.766C77.3242 274.966 77.1882 274.086 77.1882 273.126C77.1882 272.166 77.3242 271.286 77.5962 270.486C77.8842 269.686 78.3002 268.998 78.8442 268.422C79.3882 267.846 80.0522 267.398 80.8362 267.078C81.6202 266.758 82.5082 266.598 83.5002 266.598C84.4922 266.598 85.3802 266.758 86.1642 267.078C86.9482 267.398 87.6042 267.846 88.1322 268.422C88.6762 268.998 89.0842 269.686 89.3562 270.486C89.6442 271.286 89.7882 272.166 89.7882 273.126C89.7882 274.086 89.6442 274.966 89.3562 275.766C89.0842 276.55 88.6762 277.23 88.1322 277.806ZM100.053 270.246C99.3805 269.878 98.7645 269.614 98.2045 269.454C97.6445 269.294 97.1245 269.214 96.6445 269.214C96.1805 269.214 95.7805 269.302 95.4445 269.478C95.1085 269.638 94.9405 269.894 94.9405 270.246C94.9405 270.63 95.1565 270.942 95.5885 271.182C96.0365 271.406 96.5725 271.622 97.1965 271.83C97.6445 271.974 98.1165 272.142 98.6125 272.334C99.1085 272.526 99.5565 272.774 99.9565 273.078C100.373 273.382 100.709 273.758 100.965 274.206C101.237 274.654 101.373 275.214 101.373 275.886C101.373 276.59 101.229 277.182 100.941 277.662C100.669 278.126 100.293 278.51 99.8125 278.814C99.3485 279.102 98.8045 279.31 98.1805 279.438C97.5725 279.566 96.9405 279.63 96.2845 279.63C94.5245 279.63 92.9005 279.214 91.4125 278.382L92.3725 276.006C92.9965 276.326 93.6285 276.574 94.2685 276.75C94.9085 276.926 95.5245 277.014 96.1165 277.014C96.5965 277.014 97.0285 276.942 97.4125 276.798C97.8125 276.638 98.0125 276.366 98.0125 275.982C98.0125 275.598 97.7965 275.294 97.3645 275.07C96.9485 274.83 96.4205 274.598 95.7805 274.374C95.3325 274.23 94.8605 274.062 94.3645 273.87C93.8845 273.678 93.4365 273.43 93.0205 273.126C92.6045 272.806 92.2605 272.43 91.9885 271.998C91.7165 271.55 91.5805 270.998 91.5805 270.342C91.5805 269.718 91.7085 269.174 91.9645 268.71C92.2365 268.23 92.5885 267.838 93.0205 267.534C93.4685 267.214 93.9805 266.982 94.5565 266.838C95.1325 266.678 95.7325 266.598 96.3565 266.598C97.1245 266.598 97.9165 266.71 98.7325 266.934C99.5645 267.142 100.317 267.454 100.989 267.87L100.053 270.246ZM111.705 279.03C110.793 279.43 109.865 279.63 108.921 279.63C107.465 279.63 106.393 279.214 105.705 278.382C105.033 277.534 104.697 276.31 104.697 274.71V269.382H102.393V266.838H104.697V263.862L108.105 263.574V266.838H111.201V269.382H108.105V274.23C108.105 275.062 108.209 275.726 108.417 276.222C108.641 276.718 109.081 276.966 109.737 276.966C110.153 276.966 110.609 276.878 111.105 276.702L111.705 279.03ZM128.26 276.318C128.82 276.03 129.284 275.638 129.652 275.142C130.02 274.63 130.3 274.014 130.492 273.294C130.684 272.574 130.78 271.782 130.78 270.918C130.78 270.054 130.684 269.262 130.492 268.542C130.3 267.822 130.02 267.206 129.652 266.694C129.284 266.182 128.82 265.79 128.26 265.518C127.7 265.23 127.06 265.086 126.34 265.086C125.62 265.086 124.98 265.23 124.42 265.518C123.86 265.79 123.396 266.182 123.028 266.694C122.66 267.206 122.38 267.822 122.188 268.542C121.996 269.262 121.9 270.054 121.9 270.918C121.9 271.782 121.996 272.574 122.188 273.294C122.38 274.014 122.66 274.63 123.028 275.142C123.396 275.638 123.86 276.03 124.42 276.318C124.98 276.59 125.62 276.726 126.34 276.726C127.06 276.726 127.7 276.59 128.26 276.318ZM132.172 277.182C131.484 277.95 130.644 278.55 129.652 278.982C128.676 279.414 127.572 279.63 126.34 279.63C125.108 279.63 123.996 279.414 123.004 278.982C122.028 278.55 121.188 277.95 120.484 277.182C119.796 276.398 119.268 275.478 118.9 274.422C118.532 273.35 118.348 272.182 118.348 270.918C118.348 269.654 118.532 268.494 118.9 267.438C119.268 266.366 119.796 265.446 120.484 264.678C121.188 263.894 122.028 263.286 123.004 262.854C123.996 262.406 125.108 262.182 126.34 262.182C127.572 262.182 128.676 262.406 129.652 262.854C130.644 263.286 131.484 263.894 132.172 264.678C132.876 265.446 133.412 266.366 133.78 267.438C134.148 268.494 134.332 269.654 134.332 270.918C134.332 272.182 134.148 273.35 133.78 274.422C133.412 275.478 132.876 276.398 132.172 277.182ZM140.235 284.958H136.851V266.982L139.563 266.694L139.851 268.374C140.363 267.894 140.963 267.478 141.651 267.126C142.339 266.774 143.091 266.598 143.907 266.598C144.691 266.598 145.387 266.774 145.995 267.126C146.619 267.478 147.147 267.95 147.579 268.542C148.011 269.118 148.339 269.79 148.563 270.558C148.787 271.326 148.899 272.126 148.899 272.958C148.899 273.87 148.763 274.734 148.491 275.55C148.235 276.35 147.867 277.054 147.387 277.662C146.907 278.27 146.323 278.75 145.635 279.102C144.947 279.454 144.179 279.63 143.331 279.63C142.723 279.63 142.163 279.542 141.651 279.366C141.155 279.174 140.683 278.918 140.235 278.598V284.958ZM140.235 276.414C140.619 276.59 141.011 276.726 141.411 276.822C141.811 276.918 142.179 276.966 142.515 276.966C143.523 276.966 144.267 276.598 144.747 275.862C145.243 275.126 145.491 274.174 145.491 273.006C145.491 271.758 145.243 270.822 144.747 270.198C144.251 269.574 143.595 269.262 142.779 269.262C142.363 269.262 141.931 269.342 141.483 269.502C141.051 269.646 140.635 269.83 140.235 270.054V276.414ZM159.33 279.03C158.418 279.43 157.49 279.63 156.546 279.63C155.09 279.63 154.018 279.214 153.33 278.382C152.658 277.534 152.322 276.31 152.322 274.71V269.382H150.018V266.838H152.322V263.862L155.73 263.574V266.838H158.826V269.382H155.73V274.23C155.73 275.062 155.834 275.726 156.042 276.222C156.266 276.718 156.706 276.966 157.362 276.966C157.778 276.966 158.234 276.878 158.73 276.702L159.33 279.03ZM164.588 279.39H161.204V266.982L164.588 266.694V279.39ZM164.876 262.758C164.876 263.302 164.7 263.742 164.348 264.078C164.012 264.414 163.524 264.582 162.884 264.582C162.244 264.582 161.748 264.414 161.396 264.078C161.06 263.742 160.892 263.302 160.892 262.758C160.892 262.23 161.06 261.806 161.396 261.486C161.748 261.15 162.244 260.982 162.884 260.982C163.524 260.982 164.012 261.15 164.348 261.486C164.7 261.806 164.876 262.23 164.876 262.758ZM182.673 279.39C182.545 278.846 182.465 278.254 182.433 277.614C182.401 276.974 182.385 276.422 182.385 275.958V271.686C182.385 270.966 182.265 270.382 182.025 269.934C181.785 269.486 181.329 269.262 180.657 269.262C180.289 269.262 179.897 269.334 179.481 269.478C179.065 269.622 178.657 269.83 178.257 270.102C178.289 270.326 178.313 270.55 178.329 270.774C178.361 270.998 178.377 271.23 178.377 271.47V275.958C178.377 276.422 178.393 276.974 178.425 277.614C178.457 278.254 178.537 278.846 178.665 279.39H175.281C175.153 278.846 175.073 278.254 175.041 277.614C175.009 276.974 174.993 276.422 174.993 275.958V271.686C174.993 270.998 174.873 270.422 174.633 269.958C174.393 269.494 173.945 269.262 173.289 269.262C172.921 269.262 172.537 269.334 172.137 269.478C171.753 269.622 171.369 269.822 170.985 270.078V279.39H167.601V266.982L170.313 266.694L170.601 268.326C171.145 267.862 171.745 267.462 172.401 267.126C173.057 266.774 173.785 266.598 174.585 266.598C175.353 266.598 175.993 266.766 176.505 267.102C177.017 267.438 177.425 267.886 177.729 268.446C178.337 267.902 178.985 267.462 179.673 267.126C180.377 266.774 181.129 266.598 181.929 266.598C182.601 266.598 183.177 266.726 183.657 266.982C184.137 267.238 184.529 267.59 184.833 268.038C185.153 268.47 185.385 268.982 185.529 269.574C185.689 270.166 185.769 270.798 185.769 271.47V275.958C185.769 276.422 185.785 276.974 185.817 277.614C185.849 278.254 185.929 278.846 186.057 279.39H182.673ZM192.104 279.39H188.72V266.982L192.104 266.694V279.39ZM192.392 262.758C192.392 263.302 192.216 263.742 191.864 264.078C191.528 264.414 191.04 264.582 190.4 264.582C189.76 264.582 189.264 264.414 188.912 264.078C188.576 263.742 188.408 263.302 188.408 262.758C188.408 262.23 188.576 261.806 188.912 261.486C189.264 261.15 189.76 260.982 190.4 260.982C191.04 260.982 191.528 261.15 191.864 261.486C192.216 261.806 192.392 262.23 192.392 262.758ZM204.429 279.39H194.373L194.157 277.542L200.133 269.43H194.613V266.838H204.237L204.429 268.71L198.453 276.822H204.429V279.39ZM216.71 278.31C215.91 278.822 215.094 279.174 214.262 279.366C213.43 279.542 212.678 279.63 212.006 279.63C211.11 279.63 210.278 279.486 209.51 279.198C208.758 278.91 208.102 278.486 207.542 277.926C206.982 277.366 206.542 276.678 206.222 275.862C205.918 275.03 205.766 274.07 205.766 272.982C205.766 272.054 205.886 271.198 206.126 270.414C206.366 269.63 206.718 268.958 207.182 268.398C207.662 267.838 208.254 267.398 208.958 267.078C209.662 266.758 210.47 266.598 211.382 266.598C212.262 266.598 213.046 266.742 213.734 267.03C214.438 267.318 215.022 267.718 215.486 268.23C215.95 268.742 216.302 269.342 216.542 270.03C216.798 270.718 216.926 271.454 216.926 272.238C216.926 272.558 216.91 272.902 216.878 273.27C216.846 273.622 216.798 273.934 216.734 274.206H209.126C209.318 275.134 209.686 275.83 210.23 276.294C210.79 276.742 211.502 276.966 212.366 276.966C212.91 276.966 213.454 276.886 213.998 276.726C214.558 276.55 215.118 276.302 215.678 275.982L216.71 278.31ZM213.71 271.998C213.678 271.15 213.478 270.478 213.11 269.982C212.742 269.486 212.182 269.238 211.43 269.238C210.646 269.238 210.07 269.502 209.702 270.03C209.334 270.542 209.11 271.198 209.03 271.998H213.71ZM222.665 279.39H219.281V266.982L221.993 266.694L222.329 268.614C222.793 268.006 223.281 267.518 223.793 267.15C224.305 266.782 224.897 266.598 225.569 266.598C226.001 266.598 226.481 266.686 227.009 266.862L226.385 269.814C226.113 269.718 225.865 269.662 225.641 269.646C225.417 269.614 225.217 269.598 225.041 269.598C224.561 269.598 224.137 269.67 223.769 269.814C223.417 269.958 223.049 270.174 222.665 270.462V279.39Z" fill="#ACACAC"/>
<g filter="url(#filter0_d_749_49)">
<rect x="6.47852" y="6.17847" width="275.521" height="238.966" rx="10" fill="white"/>
</g>
<g clip-path="url(#clip0_749_49)">
<path d="M244.778 40.1122H32.5547V220.069H244.778V40.1122Z" fill="#B4FFC9"/>
<g filter="url(#filter1_d_749_49)">
<path d="M254.792 37.042H43.209V209.326H254.792V37.042Z" fill="white" stroke="#078449" stroke-miterlimit="10"/>
</g>
<path d="M221.124 52.3866H216.115V57.4087H221.124V52.3866Z" fill="#078449"/>
<path d="M224.256 54.8976H244.777" stroke="#078449" stroke-miterlimit="10" stroke-linejoin="round"/>
<path d="M221.124 61.524H216.115V66.546H221.124V61.524Z" fill="#92E3A9"/>
<path d="M224.256 64.035H244.777" stroke="#078449" stroke-miterlimit="10" stroke-linejoin="round"/>
<path d="M221.124 70.6613H216.115V75.6834H221.124V70.6613Z" fill="#7D7D7D"/>
<path d="M224.256 73.1724H244.777" stroke="#078449" stroke-miterlimit="10" stroke-linejoin="round"/>
<path d="M63.0106 52.3866H58.002V57.4087H63.0106V52.3866Z" fill="#078449"/>
<path d="M66.1426 54.8976H86.6642" stroke="#078449" stroke-miterlimit="10" stroke-linejoin="round"/>
<path d="M63.0106 61.524H58.002V66.546H63.0106V61.524Z" fill="#92E3A9"/>
<path d="M66.1426 64.035H86.6642" stroke="#078449" stroke-miterlimit="10" stroke-linejoin="round"/>
<path d="M63.0106 70.6613H58.002V75.6834H63.0106V70.6613Z" fill="#7D7D7D"/>
<path d="M66.1426 73.1724H86.6642" stroke="#078449" stroke-miterlimit="10" stroke-linejoin="round"/>
<path d="M221.124 175.194H216.115V180.216H221.124V175.194Z" fill="#078449"/>
<path d="M224.256 177.705H244.777" stroke="#078449" stroke-miterlimit="10" stroke-linejoin="round"/>
<path d="M221.124 184.331H216.115V189.353H221.124V184.331Z" fill="#92E3A9"/>
<path d="M224.256 186.842H244.777" stroke="#078449" stroke-miterlimit="10" stroke-linejoin="round"/>
<path d="M221.124 193.468H216.115V198.491H221.124V193.468Z" fill="#7D7D7D"/>
<path d="M224.256 195.98H244.777" stroke="#078449" stroke-miterlimit="10" stroke-linejoin="round"/>
<path d="M63.0106 175.194H58.002V180.216H63.0106V175.194Z" fill="#078449"/>
<path d="M66.1426 177.705H86.6642" stroke="#078449" stroke-miterlimit="10" stroke-linejoin="round"/>
<path d="M63.0106 184.331H58.002V189.353H63.0106V184.331Z" fill="#92E3A9"/>
<path d="M66.1426 186.842H86.6642" stroke="#078449" stroke-miterlimit="10" stroke-linejoin="round"/>
<path d="M63.0106 193.468H58.002V198.491H63.0106V193.468Z" fill="#7D7D7D"/>
<path d="M66.1426 195.98H86.6642" stroke="#078449" stroke-miterlimit="10" stroke-linejoin="round"/>
</g>
<path fill-rule="evenodd" clip-rule="evenodd" d="M174.266 162.836C173.806 162.376 173.547 161.751 173.547 161.1C173.547 160.449 173.806 159.824 174.266 159.363L181.634 151.995C181.861 151.76 182.132 151.573 182.432 151.444C182.731 151.316 183.054 151.248 183.38 151.245C183.706 151.242 184.029 151.304 184.331 151.428C184.633 151.551 184.907 151.734 185.138 151.964C185.368 152.195 185.551 152.469 185.674 152.771C185.798 153.073 185.86 153.396 185.857 153.723C185.854 154.049 185.787 154.371 185.658 154.671C185.529 154.97 185.342 155.241 185.107 155.468L177.739 162.836C177.278 163.297 176.654 163.555 176.002 163.555C175.351 163.555 174.727 163.297 174.266 162.836Z" fill="#1DBF73"/>
<path fill-rule="evenodd" clip-rule="evenodd" d="M192.474 162.836C192.014 163.297 191.389 163.555 190.738 163.555C190.086 163.555 189.462 163.297 189.001 162.836L181.633 155.468C181.185 155.005 180.938 154.384 180.943 153.74C180.949 153.096 181.207 152.48 181.663 152.025C182.118 151.569 182.734 151.311 183.378 151.305C184.022 151.3 184.643 151.547 185.106 151.995L192.474 159.363C192.935 159.824 193.193 160.449 193.193 161.1C193.193 161.751 192.935 162.376 192.474 162.836Z" fill="#078449"/>
<path fill-rule="evenodd" clip-rule="evenodd" d="M183.368 156.188C184.019 156.188 184.644 156.446 185.105 156.907C185.565 157.368 185.824 157.992 185.824 158.644V178.293C185.824 178.944 185.565 179.569 185.105 180.03C184.644 180.49 184.019 180.749 183.368 180.749C182.717 180.749 182.092 180.49 181.631 180.03C181.171 179.569 180.912 178.944 180.912 178.293V158.644C180.912 157.992 181.171 157.368 181.631 156.907C182.092 156.446 182.717 156.188 183.368 156.188ZM172.824 174.1C173.284 174.561 173.543 175.185 173.543 175.837C173.543 176.488 173.284 177.113 172.824 177.573L165.455 184.942C164.992 185.389 164.372 185.637 163.728 185.631C163.084 185.625 162.468 185.367 162.012 184.912C161.557 184.456 161.299 183.84 161.293 183.196C161.287 182.552 161.535 181.932 161.982 181.469L169.351 174.1C169.811 173.64 170.436 173.381 171.087 173.381C171.739 173.381 172.363 173.64 172.824 174.1Z" fill="#1DBF73"/>
<path fill-rule="evenodd" clip-rule="evenodd" d="M154.614 174.1C155.074 173.64 155.699 173.381 156.35 173.381C157.001 173.381 157.626 173.64 158.087 174.1L165.455 181.469C165.69 181.695 165.877 181.966 166.005 182.266C166.134 182.565 166.202 182.888 166.205 183.214C166.208 183.54 166.146 183.863 166.022 184.165C165.899 184.467 165.716 184.741 165.486 184.972C165.255 185.203 164.981 185.385 164.679 185.508C164.377 185.632 164.054 185.694 163.727 185.691C163.401 185.688 163.079 185.621 162.779 185.492C162.48 185.363 162.209 185.176 161.982 184.942L154.614 177.573C154.153 177.113 153.895 176.488 153.895 175.837C153.895 175.185 154.153 174.561 154.614 174.1Z" fill="#078449"/>
<path fill-rule="evenodd" clip-rule="evenodd" d="M163.72 180.749C163.068 180.749 162.444 180.49 161.983 180.03C161.522 179.569 161.264 178.944 161.264 178.293V158.644C161.264 157.992 161.522 157.368 161.983 156.907C162.444 156.446 163.068 156.188 163.72 156.188C164.371 156.188 164.996 156.446 165.457 156.907C165.917 157.368 166.176 157.992 166.176 158.644V178.293C166.176 178.944 165.917 179.569 165.457 180.03C164.996 180.49 164.371 180.749 163.72 180.749Z" fill="#078449"/>
<g clip-path="url(#clip1_749_49)">
<path d="M115.211 173.107C115.444 176.036 117.759 178.317 121.91 178.587V180.749H123.752V178.572C128.05 178.271 130.562 175.975 130.562 172.641C130.562 169.61 128.64 168.048 125.204 167.237L123.752 166.893V161.008C125.594 161.216 126.767 162.223 127.05 163.617H130.279C130.046 160.796 127.627 158.588 123.752 158.349V156.187H121.91V158.395C118.241 158.754 115.739 160.962 115.739 164.084C115.739 166.847 117.6 168.603 120.691 169.325L121.91 169.626V175.87C120.022 175.585 118.772 174.55 118.49 173.107H115.211ZM121.895 166.457C120.083 166.037 119.101 165.18 119.101 163.891C119.101 162.448 120.16 161.367 121.91 161.051V166.454L121.895 166.457ZM124.019 170.12C126.221 170.63 127.237 171.455 127.237 172.914C127.237 174.578 125.972 175.72 123.752 175.929V170.059L124.019 170.12Z" fill="#078449"/>
<path d="M122.886 189.959C117.186 189.959 111.719 187.695 107.689 183.665C103.659 179.634 101.394 174.168 101.394 168.468C101.394 162.768 103.659 157.302 107.689 153.272C111.719 149.241 117.186 146.977 122.886 146.977C128.585 146.977 134.052 149.241 138.082 153.272C142.113 157.302 144.377 162.768 144.377 168.468C144.377 174.168 142.113 179.634 138.082 183.665C134.052 187.695 128.585 189.959 122.886 189.959ZM122.886 193.03C129.4 193.03 135.647 190.442 140.253 185.836C144.859 181.23 147.447 174.982 147.447 168.468C147.447 161.954 144.859 155.707 140.253 151.101C135.647 146.494 129.4 143.907 122.886 143.907C116.372 143.907 110.124 146.494 105.518 151.101C100.912 155.707 98.3242 161.954 98.3242 168.468C98.3242 174.982 100.912 181.23 105.518 185.836C110.124 190.442 116.372 193.03 122.886 193.03Z" fill="#1DBF73"/>
<path d="M122.884 185.354C118.406 185.354 114.111 183.575 110.944 180.408C107.777 177.242 105.998 172.947 105.998 168.468C105.998 163.99 107.777 159.695 110.944 156.528C114.111 153.361 118.406 151.582 122.884 151.582C127.362 151.582 131.657 153.361 134.824 156.528C137.991 159.695 139.77 163.99 139.77 168.468C139.77 172.947 137.991 177.242 134.824 180.408C131.657 183.575 127.362 185.354 122.884 185.354ZM122.884 186.889C125.303 186.889 127.698 186.413 129.933 185.487C132.168 184.561 134.199 183.204 135.91 181.494C137.62 179.783 138.977 177.753 139.903 175.518C140.829 173.283 141.305 170.887 141.305 168.468C141.305 166.049 140.829 163.654 139.903 161.419C138.977 159.184 137.62 157.153 135.91 155.443C134.199 153.732 132.168 152.375 129.933 151.449C127.698 150.524 125.303 150.047 122.884 150.047C117.998 150.047 113.313 151.988 109.858 155.443C106.404 158.897 104.463 163.583 104.463 168.468C104.463 173.354 106.404 178.039 109.858 181.494C113.313 184.948 117.998 186.889 122.884 186.889Z" fill="#1DBF73"/>
</g>
<path d="M182.267 102.742C180.808 102.729 179.353 102.581 177.921 102.301C176.545 102.012 175.2 101.589 173.906 101.036L172.971 100.816H172.311C171.76 100.816 171.485 101.201 171.485 101.971V103.787C171.407 104.131 171.407 104.488 171.485 104.832C171.762 105.284 172.163 105.647 172.641 105.877C173.964 106.539 175.37 107.02 176.821 107.307C178.623 107.738 180.469 107.959 182.322 107.967C184.186 108.023 186.046 107.763 187.823 107.197C189.291 106.812 190.66 106.118 191.838 105.162C192.952 104.301 193.871 103.213 194.534 101.971C195.164 100.63 195.484 99.1632 195.469 97.6808C195.489 95.8417 194.909 94.046 193.818 92.5651C192.352 90.8986 190.445 89.6786 188.318 89.0447L183.092 87.3945C181.632 87.0166 180.265 86.3425 179.076 85.4142C178.728 85.0799 178.451 84.6784 178.262 84.2341C178.073 83.7898 177.976 83.3117 177.976 82.8288C177.937 82.1761 178.075 81.5249 178.375 80.944C178.675 80.3631 179.126 79.874 179.682 79.5284C181.204 78.79 182.888 78.4494 184.577 78.5383C186.984 78.4798 189.373 78.9689 191.563 79.9685C192.011 80.1967 192.495 80.3456 192.993 80.4085C193.543 80.4085 193.818 79.9685 193.818 79.1984V77.2181C193.835 76.7904 193.72 76.368 193.488 76.0079C193.195 75.6335 192.818 75.3323 192.388 75.1278C191.898 74.8577 191.382 74.6367 190.848 74.4677C190.163 74.2261 189.466 74.0241 188.758 73.8626L186.337 73.3126C185.44 73.2477 184.539 73.2477 183.642 73.3126C182.099 73.286 180.56 73.4899 179.076 73.9177C177.688 74.323 176.383 74.9752 175.226 75.8429C174.152 76.6265 173.269 77.6417 172.641 78.8133C171.966 80.0624 171.625 81.4644 171.65 82.8839C171.618 84.8697 172.257 86.8084 173.466 88.3846C174.976 90.204 177.013 91.5107 179.296 92.1251L184.797 93.7753C186.158 94.0933 187.422 94.7349 188.483 95.6456C189.141 96.3427 189.497 97.2722 189.473 98.2309C189.485 98.9268 189.313 99.6135 188.975 100.222C188.637 100.83 188.145 101.339 187.548 101.696C185.915 102.518 184.089 102.879 182.267 102.742ZM150.308 76.0629C150.223 75.5238 149.973 75.0241 149.592 74.6327C149.181 74.3293 148.67 74.1919 148.162 74.2477H145.137C144.631 74.2196 144.13 74.3546 143.707 74.6327C143.306 75.0092 143.052 75.5163 142.992 76.0629L137.491 100.266L131.22 76.0629C131.12 75.5171 130.851 75.0167 130.45 74.6327C130.45 74.6327 129.735 74.2477 129.02 74.2477H125.444C124.839 74.2477 124.564 74.5777 124.564 75.1828C124.617 75.6888 124.728 76.1871 124.894 76.668L133.475 104.942C133.587 105.445 133.813 105.915 134.135 106.317C134.568 106.569 135.066 106.684 135.566 106.647H138.701C139.217 106.682 139.733 106.567 140.186 106.317C140.533 105.889 140.761 105.376 140.846 104.832L146.347 81.2886L151.848 104.887C151.893 105.426 152.127 105.932 152.508 106.317C152.941 106.619 153.468 106.756 153.993 106.702H157.128C157.616 106.726 158.099 106.591 158.504 106.317C158.917 105.943 159.189 105.438 159.274 104.887L168.13 76.613C168.162 76.3205 168.162 76.0254 168.13 75.7329C168.151 75.5318 168.151 75.3289 168.13 75.1278C168.148 75.0007 168.137 74.8711 168.096 74.7492C168.056 74.6273 167.988 74.5166 167.897 74.4258C167.806 74.335 167.695 74.2666 167.573 74.2262C167.452 74.1857 167.322 74.1742 167.195 74.1927H163.784C163.28 74.1721 162.78 74.3064 162.354 74.5777C162.016 74.9974 161.772 75.4852 161.639 76.0079L156.138 100.816L150.308 76.0629ZM110.867 87.7795C109.572 87.6096 108.268 87.5177 106.962 87.5045C103.724 87.3344 100.536 88.3514 97.9955 90.3649C96.9136 91.2915 96.0548 92.4505 95.4833 93.7553C94.9118 95.0602 94.6424 96.4773 94.6951 97.9009C94.6311 99.1973 94.8377 100.493 95.3017 101.705C95.7658 102.917 96.4771 104.02 97.3904 104.942C98.3721 105.848 99.5251 106.548 100.782 107.001C102.038 107.455 103.372 107.652 104.706 107.582C106.806 107.643 108.891 107.217 110.799 106.339C112.708 105.462 114.388 104.155 115.708 102.521C116.029 103.259 116.397 103.975 116.808 104.667C117.2 105.271 117.641 105.842 118.128 106.372C118.261 106.507 118.42 106.614 118.594 106.687C118.769 106.76 118.957 106.797 119.146 106.797C119.335 106.797 119.523 106.76 119.697 106.687C119.872 106.614 120.03 106.507 120.164 106.372L122.474 104.832C122.667 104.712 122.831 104.552 122.954 104.362C123.078 104.171 123.158 103.956 123.189 103.732C123.278 103.445 123.278 103.138 123.189 102.852C122.743 102.018 122.357 101.154 122.034 100.266C121.739 99.1919 121.609 98.079 121.649 96.9657V85.3592C121.78 83.7291 121.58 82.0893 121.06 80.5388C120.54 78.9883 119.711 77.5592 118.623 76.338C117.225 75.1625 115.6 74.2874 113.85 73.7669C112.099 73.2464 110.26 73.0918 108.447 73.3126C106.59 73.3119 104.741 73.5523 102.946 74.0277C101.348 74.3992 99.7976 74.9529 98.3256 75.6779C97.9373 75.8494 97.5973 76.1139 97.3354 76.448C97.201 76.859 97.201 77.3021 97.3354 77.7132V79.5284C97.3354 80.2985 97.3354 80.6286 98.1055 80.6286C98.3049 80.6717 98.5112 80.6717 98.7106 80.6286L99.9758 80.1885C101.093 79.64 102.252 79.1802 103.441 78.8133C104.737 78.4887 106.066 78.3224 107.402 78.3182C109.528 78.0955 111.658 78.7068 113.343 80.0235C114.653 81.6688 115.265 83.7624 115.048 85.8542V88.5496L110.867 87.7795ZM115.158 92.7302V94.2154C115.162 95.2907 115.033 96.3624 114.773 97.4058C114.541 98.2818 114.107 99.0917 113.508 99.7711C112.59 100.849 111.39 101.649 110.042 102.081C108.84 102.504 107.576 102.727 106.302 102.742C105.604 102.793 104.903 102.703 104.241 102.476C103.579 102.249 102.97 101.89 102.451 101.421C101.969 100.899 101.603 100.282 101.375 99.6091C101.148 98.9362 101.065 98.223 101.131 97.5158C101.085 96.7256 101.226 95.9357 101.541 95.2096C101.857 94.4836 102.338 93.8416 102.946 93.3352C104.549 92.2114 106.496 91.6858 108.447 91.85H111.857C112.973 92.0829 114.075 92.3767 115.158 92.7302ZM187.823 122.819C174.673 128.352 160.559 131.231 146.292 131.29C127.196 131.294 108.429 126.327 91.8347 116.878C90.5145 116.053 89.4694 117.428 90.6245 118.474C105.561 131.976 125.002 139.411 145.137 139.321C161.015 139.361 176.538 134.627 189.693 125.735C191.563 124.029 189.858 121.774 187.823 122.819Z" fill="#1DBF73"/>
<path d="M180.231 117.649C179.186 118.419 179.351 119.464 180.506 119.299C184.412 118.804 193.048 117.814 194.588 119.794C196.128 121.774 192.883 129.86 191.397 133.491C190.957 134.591 191.948 135.031 192.938 134.206C195.442 131.9 197.362 129.031 198.539 125.836C199.715 122.642 200.115 119.213 199.704 115.833C196.543 114.589 193.133 114.104 189.751 114.42C186.368 114.735 183.107 115.841 180.231 117.649Z" fill="#078449"/>
<defs>
<filter id="filter0_d_749_49" x="0.478516" y="0.178467" width="287.521" height="250.966" filterUnits="userSpaceOnUse" color-interpolation-filters="sRGB">
<feFlood flood-opacity="0" result="BackgroundImageFix"/>
<feColorMatrix in="SourceAlpha" type="matrix" values="0 0 0 0 0 0 0 0 0 0 0 0 0 0 0 0 0 0 127 0" result="hardAlpha"/>
<feMorphology radius="2" operator="dilate" in="SourceAlpha" result="effect1_dropShadow_749_49"/>
<feOffset/>
<feGaussianBlur stdDeviation="2"/>
<feComposite in2="hardAlpha" operator="out"/>
<feColorMatrix type="matrix" values="0 0 0 0 0 0 0 0 0 0 0 0 0 0 0 0 0 0 0.11 0"/>
<feBlend mode="normal" in2="BackgroundImageFix" result="effect1_dropShadow_749_49"/>
<feBlend mode="normal" in="SourceGraphic" in2="effect1_dropShadow_749_49" result="shape"/>
</filter>
<filter id="filter1_d_749_49" x="38.709" y="36.542" width="220.584" height="181.284" filterUnits="userSpaceOnUse" color-interpolation-filters="sRGB">
<feFlood flood-opacity="0" result="BackgroundImageFix"/>
<feColorMatrix in="SourceAlpha" type="matrix" values="0 0 0 0 0 0 0 0 0 0 0 0 0 0 0 0 0 0 127 0" result="hardAlpha"/>
<feOffset dy="4"/>
<feGaussianBlur stdDeviation="2"/>
<feComposite in2="hardAlpha" operator="out"/>
<feColorMatrix type="matrix" values="0 0 0 0 0 0 0 0 0 0 0 0 0 0 0 0 0 0 0.1 0"/>
<feBlend mode="normal" in2="BackgroundImageFix" result="effect1_dropShadow_749_49"/>
<feBlend mode="normal" in="SourceGraphic" in2="effect1_dropShadow_749_49" result="shape"/>
</filter>
<clipPath id="clip0_749_49">
<rect width="225.91" height="191.886" fill="white" transform="translate(31.2852 29.7182)"/>
</clipPath>
<clipPath id="clip1_749_49">
<rect width="58.6326" height="49.8377" fill="white" transform="translate(89.0469 144.42)"/>
</clipPath>
</defs>
</svg>
