<svg width="288" height="349" viewBox="0 0 288 349" fill="none" xmlns="http://www.w3.org/2000/svg">
<rect x="72.4883" y="312.746" width="150" height="35.38" rx="17.69" fill="#E7E7E7"/>
<path d="M94.4963 333.696C95.1469 334.08 95.7763 334.352 96.3843 334.512C97.0029 334.661 97.5576 334.736 98.0483 334.736C98.7843 334.736 99.3816 334.592 99.8403 334.304C100.31 334.005 100.544 333.573 100.544 333.008C100.544 332.688 100.464 332.416 100.304 332.192C100.144 331.968 99.9309 331.771 99.6643 331.6C99.4083 331.429 99.1043 331.285 98.7523 331.168C98.4109 331.04 98.0589 330.912 97.6963 330.784C97.2803 330.645 96.8643 330.496 96.4483 330.336C96.0429 330.176 95.6749 329.979 95.3443 329.744C95.0136 329.499 94.7469 329.2 94.5443 328.848C94.3416 328.496 94.2403 328.053 94.2403 327.52C94.2403 326.976 94.3469 326.512 94.5603 326.128C94.7843 325.744 95.0723 325.429 95.4243 325.184C95.7869 324.928 96.1976 324.747 96.6563 324.64C97.1256 324.523 97.6003 324.464 98.0803 324.464C98.7416 324.464 99.3816 324.555 100 324.736C100.63 324.917 101.19 325.163 101.68 325.472L101.12 326.704C100.587 326.427 100.07 326.213 99.5683 326.064C99.0669 325.904 98.5763 325.824 98.0963 325.824C97.8083 325.824 97.5256 325.856 97.2483 325.92C96.9709 325.973 96.7203 326.064 96.4963 326.192C96.2829 326.32 96.1069 326.485 95.9683 326.688C95.8403 326.891 95.7763 327.136 95.7763 327.424C95.7763 327.701 95.8403 327.941 95.9683 328.144C96.1069 328.336 96.2883 328.507 96.5123 328.656C96.7363 328.805 96.9976 328.939 97.2963 329.056C97.6056 329.173 97.9309 329.291 98.2723 329.408C98.6989 329.557 99.1363 329.717 99.5843 329.888C100.032 330.059 100.438 330.277 100.8 330.544C101.174 330.811 101.478 331.136 101.712 331.52C101.958 331.904 102.08 332.379 102.08 332.944C102.08 333.456 101.974 333.909 101.76 334.304C101.558 334.699 101.275 335.029 100.912 335.296C100.55 335.552 100.118 335.749 99.6163 335.888C99.1149 336.027 98.5709 336.096 97.9843 336.096C97.3336 336.096 96.6616 336.011 95.9683 335.84C95.2749 335.659 94.5923 335.355 93.9203 334.928L94.4963 333.696ZM109.058 335.936C108.994 335.669 108.951 335.403 108.93 335.136C108.066 335.776 107.202 336.096 106.338 336.096C105.89 336.096 105.5 336.011 105.17 335.84C104.85 335.669 104.588 335.44 104.386 335.152C104.183 334.853 104.034 334.507 103.938 334.112C103.842 333.717 103.794 333.296 103.794 332.848V327.696L105.218 327.568V332.784C105.218 333.072 105.239 333.344 105.282 333.6C105.335 333.856 105.415 334.08 105.522 334.272C105.639 334.453 105.794 334.597 105.986 334.704C106.188 334.811 106.434 334.864 106.722 334.864C107.042 334.864 107.388 334.795 107.762 334.656C108.146 334.507 108.524 334.309 108.898 334.064V327.696L110.322 327.568V333.968C110.322 334.277 110.327 334.608 110.338 334.96C110.359 335.301 110.407 335.627 110.482 335.936H109.058ZM114.094 335.936H112.878V324.016L114.302 323.888V328.544C114.707 328.224 115.129 327.973 115.566 327.792C116.003 327.6 116.462 327.504 116.942 327.504C117.475 327.504 117.945 327.621 118.35 327.856C118.766 328.091 119.113 328.405 119.39 328.8C119.667 329.184 119.875 329.627 120.014 330.128C120.163 330.629 120.238 331.147 120.238 331.68C120.238 332.277 120.153 332.843 119.982 333.376C119.822 333.909 119.582 334.379 119.262 334.784C118.942 335.189 118.547 335.509 118.078 335.744C117.619 335.979 117.091 336.096 116.494 336.096C116.089 336.096 115.689 336.037 115.294 335.92C114.899 335.792 114.553 335.605 114.254 335.36L114.094 335.936ZM114.302 334.224C114.59 334.416 114.905 334.571 115.246 334.688C115.598 334.805 115.955 334.864 116.318 334.864C116.745 334.864 117.113 334.779 117.422 334.608C117.742 334.437 118.003 334.203 118.206 333.904C118.409 333.605 118.558 333.264 118.654 332.88C118.75 332.496 118.798 332.085 118.798 331.648C118.798 331.253 118.755 330.88 118.67 330.528C118.585 330.165 118.451 329.856 118.27 329.6C118.099 329.333 117.875 329.125 117.598 328.976C117.321 328.816 116.995 328.736 116.622 328.736C116.217 328.736 115.801 328.821 115.374 328.992C114.958 329.163 114.601 329.355 114.302 329.568V334.224ZM127.069 329.408C126.642 329.195 126.232 329.024 125.837 328.896C125.442 328.768 125.053 328.704 124.669 328.704C124.466 328.704 124.269 328.725 124.077 328.768C123.896 328.811 123.73 328.875 123.581 328.96C123.442 329.045 123.33 329.152 123.245 329.28C123.16 329.397 123.117 329.541 123.117 329.712C123.117 329.893 123.165 330.059 123.261 330.208C123.368 330.347 123.506 330.475 123.677 330.592C123.848 330.699 124.05 330.8 124.285 330.896C124.52 330.981 124.765 331.067 125.021 331.152C125.341 331.259 125.661 331.376 125.981 331.504C126.301 331.632 126.594 331.797 126.861 332C127.128 332.192 127.341 332.432 127.501 332.72C127.672 333.008 127.757 333.36 127.757 333.776C127.757 334.213 127.666 334.581 127.485 334.88C127.314 335.168 127.08 335.403 126.781 335.584C126.493 335.765 126.157 335.893 125.773 335.968C125.389 336.053 124.989 336.096 124.573 336.096C124.05 336.096 123.533 336.037 123.021 335.92C122.509 335.792 122.034 335.589 121.597 335.312L122.093 334.192C122.509 334.405 122.941 334.576 123.389 334.704C123.848 334.832 124.285 334.896 124.701 334.896C124.904 334.896 125.101 334.88 125.293 334.848C125.496 334.805 125.672 334.747 125.821 334.672C125.981 334.587 126.104 334.475 126.189 334.336C126.285 334.197 126.333 334.032 126.333 333.84C126.333 333.648 126.28 333.477 126.173 333.328C126.066 333.179 125.922 333.051 125.741 332.944C125.56 332.827 125.341 332.72 125.085 332.624C124.829 332.517 124.557 332.416 124.269 332.32C123.96 332.213 123.65 332.096 123.341 331.968C123.032 331.829 122.754 331.664 122.509 331.472C122.264 331.28 122.066 331.051 121.917 330.784C121.768 330.507 121.693 330.181 121.693 329.808C121.693 329.424 121.773 329.088 121.933 328.8C122.093 328.512 122.306 328.272 122.573 328.08C122.85 327.888 123.17 327.744 123.533 327.648C123.896 327.552 124.285 327.504 124.701 327.504C125.17 327.504 125.656 327.568 126.157 327.696C126.658 327.813 127.122 328.011 127.549 328.288L127.069 329.408ZM135.899 335.312C135.504 335.579 135.051 335.776 134.539 335.904C134.037 336.032 133.531 336.096 133.019 336.096C132.389 336.096 131.829 335.995 131.339 335.792C130.859 335.579 130.453 335.285 130.123 334.912C129.792 334.528 129.541 334.075 129.371 333.552C129.2 333.019 129.115 332.432 129.115 331.792C129.115 331.173 129.195 330.603 129.355 330.08C129.525 329.557 129.776 329.104 130.107 328.72C130.437 328.336 130.848 328.037 131.339 327.824C131.829 327.611 132.4 327.504 133.051 327.504C133.605 327.504 134.112 327.579 134.571 327.728C135.029 327.877 135.435 328.064 135.787 328.288L135.307 329.408C134.88 329.184 134.485 329.019 134.123 328.912C133.76 328.795 133.408 328.736 133.067 328.736C132.277 328.736 131.659 329.003 131.211 329.536C130.773 330.059 130.555 330.811 130.555 331.792C130.555 332.229 130.603 332.64 130.699 333.024C130.805 333.397 130.965 333.723 131.179 334C131.392 334.267 131.659 334.48 131.979 334.64C132.309 334.789 132.693 334.864 133.131 334.864C133.536 334.864 133.931 334.805 134.315 334.688C134.699 334.56 135.067 334.395 135.419 334.192L135.899 335.312ZM138.989 335.936H137.565V327.696L138.845 327.568L138.989 328.832C139.33 328.416 139.682 328.091 140.045 327.856C140.418 327.621 140.813 327.504 141.229 327.504C141.517 327.504 141.837 327.563 142.189 327.68L141.853 329.056C141.693 329.003 141.538 328.971 141.389 328.96C141.25 328.939 141.122 328.928 141.005 328.928C140.589 328.928 140.226 329.008 139.917 329.168C139.607 329.328 139.298 329.547 138.989 329.824V335.936ZM145.083 335.936H143.659V327.696L145.083 327.568V335.936ZM145.291 324.8C145.291 325.056 145.206 325.269 145.035 325.44C144.865 325.611 144.641 325.696 144.363 325.696C144.086 325.696 143.862 325.611 143.691 325.44C143.521 325.269 143.435 325.056 143.435 324.8C143.435 324.533 143.521 324.32 143.691 324.16C143.862 324 144.086 323.92 144.363 323.92C144.641 323.92 144.865 324 145.035 324.16C145.206 324.32 145.291 324.533 145.291 324.8ZM148.891 335.936H147.675V324.016L149.099 323.888V328.544C149.504 328.224 149.926 327.973 150.363 327.792C150.8 327.6 151.259 327.504 151.739 327.504C152.272 327.504 152.742 327.621 153.147 327.856C153.563 328.091 153.91 328.405 154.187 328.8C154.464 329.184 154.672 329.627 154.811 330.128C154.96 330.629 155.035 331.147 155.035 331.68C155.035 332.277 154.95 332.843 154.779 333.376C154.619 333.909 154.379 334.379 154.059 334.784C153.739 335.189 153.344 335.509 152.875 335.744C152.416 335.979 151.888 336.096 151.291 336.096C150.886 336.096 150.486 336.037 150.091 335.92C149.696 335.792 149.35 335.605 149.051 335.36L148.891 335.936ZM149.099 334.224C149.387 334.416 149.702 334.571 150.043 334.688C150.395 334.805 150.752 334.864 151.115 334.864C151.542 334.864 151.91 334.779 152.219 334.608C152.539 334.437 152.8 334.203 153.003 333.904C153.206 333.605 153.355 333.264 153.451 332.88C153.547 332.496 153.595 332.085 153.595 331.648C153.595 331.253 153.552 330.88 153.467 330.528C153.382 330.165 153.248 329.856 153.067 329.6C152.896 329.333 152.672 329.125 152.395 328.976C152.118 328.816 151.792 328.736 151.419 328.736C151.014 328.736 150.598 328.821 150.171 328.992C149.755 329.163 149.398 329.355 149.099 329.568V334.224ZM163.258 335.312C162.863 335.579 162.41 335.776 161.898 335.904C161.386 336.032 160.89 336.096 160.41 336.096C159.759 336.096 159.189 335.989 158.698 335.776C158.207 335.563 157.797 335.264 157.466 334.88C157.135 334.485 156.885 334.021 156.714 333.488C156.554 332.944 156.474 332.352 156.474 331.712C156.474 331.147 156.538 330.608 156.666 330.096C156.805 329.584 157.018 329.136 157.306 328.752C157.594 328.368 157.957 328.064 158.394 327.84C158.842 327.616 159.375 327.504 159.994 327.504C160.549 327.504 161.039 327.6 161.466 327.792C161.893 327.973 162.25 328.229 162.538 328.56C162.826 328.891 163.045 329.291 163.194 329.76C163.343 330.219 163.418 330.72 163.418 331.264C163.418 331.659 163.386 332.005 163.322 332.304H157.914C157.999 333.093 158.25 333.717 158.666 334.176C159.082 334.635 159.685 334.864 160.474 334.864C160.879 334.864 161.274 334.805 161.658 334.688C162.053 334.56 162.426 334.395 162.778 334.192L163.258 335.312ZM162.01 331.168C161.999 330.816 161.951 330.491 161.866 330.192C161.781 329.883 161.658 329.621 161.498 329.408C161.338 329.184 161.135 329.013 160.89 328.896C160.645 328.768 160.351 328.704 160.01 328.704C159.658 328.704 159.354 328.768 159.098 328.896C158.853 329.024 158.645 329.2 158.474 329.424C158.314 329.648 158.186 329.909 158.09 330.208C157.994 330.507 157.93 330.827 157.898 331.168H162.01ZM178.225 335.936H176.753L171.073 327.136V335.936H169.601V324.624H171.073L176.753 333.424V324.624H178.225V335.936ZM185.436 334.624C185.745 334.464 186.001 334.251 186.204 333.984C186.406 333.707 186.556 333.381 186.652 333.008C186.748 332.635 186.796 332.229 186.796 331.792C186.796 331.365 186.748 330.965 186.652 330.592C186.556 330.219 186.406 329.899 186.204 329.632C186.001 329.355 185.745 329.136 185.436 328.976C185.126 328.816 184.758 328.736 184.332 328.736C183.894 328.736 183.521 328.816 183.212 328.976C182.902 329.136 182.641 329.355 182.428 329.632C182.225 329.899 182.076 330.219 181.98 330.592C181.884 330.965 181.836 331.365 181.836 331.792C181.836 332.229 181.884 332.635 181.98 333.008C182.076 333.381 182.225 333.707 182.428 333.984C182.641 334.251 182.902 334.464 183.212 334.624C183.521 334.784 183.894 334.864 184.332 334.864C184.758 334.864 185.126 334.784 185.436 334.624ZM187.228 334.912C186.908 335.285 186.502 335.579 186.012 335.792C185.532 335.995 184.972 336.096 184.332 336.096C183.692 336.096 183.126 335.995 182.636 335.792C182.156 335.579 181.745 335.285 181.404 334.912C181.073 334.528 180.822 334.075 180.652 333.552C180.481 333.019 180.396 332.432 180.396 331.792C180.396 331.163 180.481 330.587 180.652 330.064C180.822 329.531 181.073 329.077 181.404 328.704C181.745 328.32 182.156 328.027 182.636 327.824C183.126 327.611 183.692 327.504 184.332 327.504C184.961 327.504 185.516 327.611 185.996 327.824C186.486 328.027 186.897 328.32 187.228 328.704C187.558 329.077 187.809 329.531 187.98 330.064C188.15 330.587 188.236 331.163 188.236 331.792C188.236 332.432 188.15 333.019 187.98 333.552C187.809 334.075 187.558 334.528 187.228 334.912ZM198.349 335.936H196.733L194.893 330.528L193.165 335.936H191.549L189.293 327.664H190.717L192.381 334.384L194.349 328.32H195.533L197.501 334.416L199.261 327.664H200.589L198.349 335.936Z" fill="#767676"/>
<path d="M85.7743 279.39H82.0783L80.6383 275.238H74.4943L73.0543 279.39H69.4783L75.8383 262.422H79.4143L85.7743 279.39ZM79.7503 272.502L77.5663 266.19L75.3823 272.502H79.7503ZM102.79 279.39H99.4297L95.8537 268.854L92.5177 279.39H89.1577L84.7417 262.422H88.3177L91.0537 274.11L94.2937 263.886H97.5097L100.966 274.206L103.678 262.422H107.206L102.79 279.39ZM119.268 266.238C118.596 265.902 117.86 265.622 117.06 265.398C116.276 265.158 115.532 265.038 114.828 265.038C114.492 265.038 114.156 265.07 113.82 265.134C113.5 265.198 113.212 265.302 112.956 265.446C112.716 265.574 112.516 265.75 112.356 265.974C112.212 266.182 112.14 266.43 112.14 266.718C112.14 267.022 112.22 267.294 112.38 267.534C112.556 267.758 112.788 267.966 113.076 268.158C113.364 268.334 113.7 268.502 114.084 268.662C114.468 268.806 114.884 268.95 115.332 269.094C115.972 269.318 116.636 269.566 117.324 269.838C118.028 270.11 118.668 270.454 119.244 270.87C119.82 271.286 120.292 271.798 120.66 272.406C121.044 272.998 121.236 273.734 121.236 274.614C121.236 275.414 121.076 276.126 120.756 276.75C120.436 277.358 119.988 277.878 119.412 278.31C118.836 278.742 118.148 279.07 117.348 279.294C116.548 279.518 115.676 279.63 114.732 279.63C113.58 279.63 112.436 279.478 111.3 279.174C110.18 278.854 109.164 278.438 108.252 277.926L109.476 275.358C109.812 275.55 110.196 275.734 110.628 275.91C111.06 276.07 111.508 276.214 111.972 276.342C112.452 276.47 112.932 276.574 113.412 276.654C113.892 276.734 114.356 276.774 114.804 276.774C115.748 276.774 116.46 276.606 116.94 276.27C117.436 275.918 117.684 275.454 117.684 274.878C117.684 274.494 117.58 274.166 117.372 273.894C117.18 273.622 116.916 273.382 116.58 273.174C116.244 272.95 115.852 272.758 115.404 272.598C114.972 272.422 114.516 272.246 114.036 272.07C113.412 271.846 112.772 271.606 112.116 271.35C111.476 271.094 110.892 270.774 110.364 270.39C109.836 270.006 109.404 269.542 109.068 268.998C108.748 268.454 108.588 267.774 108.588 266.958C108.588 266.19 108.74 265.51 109.044 264.918C109.364 264.31 109.796 263.806 110.34 263.406C110.9 263.006 111.556 262.702 112.308 262.494C113.06 262.286 113.884 262.182 114.78 262.182C115.74 262.182 116.7 262.302 117.66 262.542C118.636 262.782 119.58 263.158 120.492 263.67L119.268 266.238ZM138.862 266.238C138.19 265.902 137.454 265.622 136.654 265.398C135.87 265.158 135.126 265.038 134.422 265.038C134.086 265.038 133.75 265.07 133.414 265.134C133.094 265.198 132.806 265.302 132.55 265.446C132.31 265.574 132.11 265.75 131.95 265.974C131.806 266.182 131.734 266.43 131.734 266.718C131.734 267.022 131.814 267.294 131.974 267.534C132.15 267.758 132.382 267.966 132.67 268.158C132.958 268.334 133.294 268.502 133.678 268.662C134.062 268.806 134.478 268.95 134.926 269.094C135.566 269.318 136.23 269.566 136.918 269.838C137.622 270.11 138.262 270.454 138.838 270.87C139.414 271.286 139.886 271.798 140.254 272.406C140.638 272.998 140.83 273.734 140.83 274.614C140.83 275.414 140.67 276.126 140.35 276.75C140.03 277.358 139.582 277.878 139.006 278.31C138.43 278.742 137.742 279.07 136.942 279.294C136.142 279.518 135.27 279.63 134.326 279.63C133.174 279.63 132.03 279.478 130.894 279.174C129.774 278.854 128.758 278.438 127.846 277.926L129.07 275.358C129.406 275.55 129.79 275.734 130.222 275.91C130.654 276.07 131.102 276.214 131.566 276.342C132.046 276.47 132.526 276.574 133.006 276.654C133.486 276.734 133.95 276.774 134.398 276.774C135.342 276.774 136.054 276.606 136.534 276.27C137.03 275.918 137.278 275.454 137.278 274.878C137.278 274.494 137.174 274.166 136.966 273.894C136.774 273.622 136.51 273.382 136.174 273.174C135.838 272.95 135.446 272.758 134.998 272.598C134.566 272.422 134.11 272.246 133.63 272.07C133.006 271.846 132.366 271.606 131.71 271.35C131.07 271.094 130.486 270.774 129.958 270.39C129.43 270.006 128.998 269.542 128.662 268.998C128.342 268.454 128.182 267.774 128.182 266.958C128.182 266.19 128.334 265.51 128.638 264.918C128.958 264.31 129.39 263.806 129.934 263.406C130.494 263.006 131.15 262.702 131.902 262.494C132.654 262.286 133.478 262.182 134.374 262.182C135.334 262.182 136.294 262.302 137.254 262.542C138.23 262.782 139.174 263.158 140.086 263.67L138.862 266.238ZM153.398 278.31C152.598 278.822 151.782 279.174 150.95 279.366C150.118 279.542 149.366 279.63 148.694 279.63C147.798 279.63 146.966 279.486 146.198 279.198C145.446 278.91 144.79 278.486 144.23 277.926C143.67 277.366 143.23 276.678 142.91 275.862C142.606 275.03 142.454 274.07 142.454 272.982C142.454 272.054 142.574 271.198 142.814 270.414C143.054 269.63 143.406 268.958 143.87 268.398C144.35 267.838 144.942 267.398 145.646 267.078C146.35 266.758 147.158 266.598 148.07 266.598C148.95 266.598 149.734 266.742 150.422 267.03C151.126 267.318 151.71 267.718 152.174 268.23C152.638 268.742 152.99 269.342 153.23 270.03C153.486 270.718 153.614 271.454 153.614 272.238C153.614 272.558 153.598 272.902 153.566 273.27C153.534 273.622 153.486 273.934 153.422 274.206H145.814C146.006 275.134 146.374 275.83 146.918 276.294C147.478 276.742 148.19 276.966 149.054 276.966C149.598 276.966 150.142 276.886 150.686 276.726C151.246 276.55 151.806 276.302 152.366 275.982L153.398 278.31ZM150.398 271.998C150.366 271.15 150.166 270.478 149.798 269.982C149.43 269.486 148.87 269.238 148.118 269.238C147.334 269.238 146.758 269.502 146.39 270.03C146.022 270.542 145.798 271.198 145.718 271.998H150.398ZM166.048 278.382C165.424 278.798 164.736 279.11 163.984 279.318C163.232 279.526 162.456 279.63 161.656 279.63C160.744 279.63 159.904 279.486 159.136 279.198C158.368 278.91 157.696 278.494 157.12 277.95C156.56 277.39 156.12 276.71 155.8 275.91C155.496 275.11 155.344 274.19 155.344 273.15C155.344 272.142 155.496 271.23 155.8 270.414C156.104 269.598 156.528 268.91 157.072 268.35C157.632 267.79 158.296 267.358 159.064 267.054C159.832 266.75 160.688 266.598 161.632 266.598C162.496 266.598 163.272 266.718 163.96 266.958C164.664 267.182 165.296 267.47 165.856 267.822L164.896 270.198C164.336 269.878 163.816 269.646 163.336 269.502C162.856 269.342 162.384 269.262 161.92 269.262C160.912 269.262 160.128 269.606 159.568 270.294C159.024 270.966 158.752 271.91 158.752 273.126C158.752 274.294 159.016 275.23 159.544 275.934C160.088 276.622 160.896 276.966 161.968 276.966C162.48 276.966 162.992 276.886 163.504 276.726C164.032 276.566 164.552 276.334 165.064 276.03L166.048 278.382ZM175.935 279.39C175.887 279.23 175.847 279.022 175.815 278.766C175.783 278.51 175.751 278.27 175.719 278.046C175.159 278.494 174.551 278.87 173.895 279.174C173.239 279.478 172.527 279.63 171.759 279.63C171.087 279.63 170.503 279.51 170.007 279.27C169.527 279.014 169.127 278.67 168.807 278.238C168.503 277.79 168.279 277.27 168.135 276.678C167.991 276.086 167.919 275.446 167.919 274.758V266.982L171.303 266.694V274.542C171.303 275.31 171.431 275.91 171.687 276.342C171.943 276.758 172.391 276.966 173.031 276.966C173.399 276.966 173.791 276.894 174.207 276.75C174.623 276.606 175.015 276.414 175.383 276.174V266.982L178.767 266.694V275.958C178.767 276.422 178.783 276.974 178.815 277.614C178.847 278.254 178.927 278.846 179.055 279.39H175.935ZM185.134 279.39H181.75V266.982L184.462 266.694L184.798 268.614C185.262 268.006 185.75 267.518 186.262 267.15C186.774 266.782 187.366 266.598 188.038 266.598C188.47 266.598 188.95 266.686 189.478 266.862L188.854 269.814C188.582 269.718 188.334 269.662 188.11 269.646C187.886 269.614 187.686 269.598 187.51 269.598C187.03 269.598 186.606 269.67 186.238 269.814C185.886 269.958 185.518 270.174 185.134 270.462V279.39ZM194.58 279.39H191.196V266.982L194.58 266.694V279.39ZM194.868 262.758C194.868 263.302 194.692 263.742 194.34 264.078C194.004 264.414 193.516 264.582 192.876 264.582C192.236 264.582 191.74 264.414 191.388 264.078C191.052 263.742 190.884 263.302 190.884 262.758C190.884 262.23 191.052 261.806 191.388 261.486C191.74 261.15 192.236 260.982 192.876 260.982C193.516 260.982 194.004 261.15 194.34 261.486C194.692 261.806 194.868 262.23 194.868 262.758ZM205.681 279.03C204.769 279.43 203.841 279.63 202.897 279.63C201.441 279.63 200.369 279.214 199.681 278.382C199.009 277.534 198.673 276.31 198.673 274.71V269.382H196.369V266.838H198.673V263.862L202.081 263.574V266.838H205.177V269.382H202.081V274.23C202.081 275.062 202.185 275.726 202.393 276.222C202.617 276.718 203.057 276.966 203.713 276.966C204.129 276.966 204.585 276.878 205.081 276.702L205.681 279.03ZM214.612 277.902C214.084 279.406 213.404 280.822 212.572 282.15C211.756 283.494 210.812 284.622 209.74 285.534L207.676 283.398C208.412 282.63 209.028 281.918 209.524 281.262C210.036 280.606 210.468 279.958 210.82 279.318L206.188 266.838H209.788L212.476 275.67L215.116 266.838H218.476L214.612 277.902Z" fill="#ACACAC"/>
<g filter="url(#filter0_d_749_389)">
<rect x="6.47852" y="6.17847" width="275.521" height="238.966" rx="10" fill="white"/>
</g>
<g clip-path="url(#clip0_749_389)">
<path d="M239.507 40.2661H33.2031V213.929H239.507V40.2661Z" fill="#B4FFC9"/>
<g filter="url(#filter1_d_749_389)">
<path d="M256.516 37.3919H44.1719V201.808H256.516V37.3919Z" fill="white" stroke="#078449" stroke-miterlimit="10"/>
</g>
<g clip-path="url(#clip1_749_389)">
<path d="M196.365 94.6829C194.16 83.7945 188.145 73.9898 179.347 66.9436C170.549 59.8973 159.513 56.0465 148.125 56.049C129.158 56.049 112.684 66.539 104.48 81.8902C94.8339 82.9062 85.913 87.3604 79.4318 94.3971C72.9505 101.434 69.3661 110.557 69.3672 120.012C69.3672 141.184 87.0222 158.39 108.746 158.39H194.068C212.182 158.39 226.884 144.063 226.884 126.409C226.884 109.522 213.429 95.8342 196.365 94.6829Z" fill="#C4FFE4"/>
<path d="M194.789 102.358C192.584 91.4701 186.569 81.6654 177.771 74.6191C168.973 67.5729 157.937 63.7221 146.549 63.7246C127.582 63.7246 111.108 74.2146 102.904 89.5658C93.2577 90.5817 84.3368 95.036 77.8556 102.073C71.3743 109.109 67.7899 118.232 67.791 127.688C67.791 148.86 85.446 166.066 107.17 166.066H192.491C210.606 166.066 225.307 151.738 225.307 134.084C225.307 117.198 211.853 103.51 194.789 102.358Z" fill="#1DBF73"/>
<path d="M170.095 125.22C168.946 125.21 167.801 125.097 166.673 124.882C165.589 124.66 164.53 124.335 163.511 123.911L162.775 123.742H162.255C161.822 123.742 161.605 124.038 161.605 124.629V126.022C161.544 126.286 161.544 126.56 161.605 126.824C161.823 127.171 162.138 127.45 162.515 127.626C163.557 128.134 164.664 128.503 165.807 128.724C167.226 129.054 168.679 129.224 170.138 129.23C171.606 129.273 173.071 129.074 174.47 128.639C175.626 128.344 176.704 127.811 177.632 127.077C178.509 126.417 179.233 125.582 179.755 124.629C180.251 123.599 180.503 122.474 180.491 121.336C180.507 119.925 180.051 118.547 179.192 117.41C178.037 116.131 176.535 115.195 174.86 114.708L170.745 113.442C169.595 113.152 168.519 112.634 167.583 111.922C167.308 111.665 167.09 111.357 166.941 111.016C166.792 110.675 166.716 110.308 166.716 109.938C166.685 109.437 166.794 108.937 167.03 108.491C167.267 108.045 167.622 107.67 168.059 107.405C169.258 106.838 170.584 106.577 171.914 106.645C173.81 106.6 175.691 106.975 177.416 107.743C177.768 107.918 178.149 108.032 178.542 108.08C178.975 108.08 179.192 107.743 179.192 107.152V105.632C179.205 105.304 179.114 104.979 178.932 104.703C178.7 104.416 178.404 104.185 178.065 104.028C177.679 103.82 177.273 103.651 176.853 103.521C176.313 103.336 175.764 103.181 175.207 103.057L173.301 102.634C172.594 102.585 171.885 102.585 171.178 102.634C169.963 102.614 168.751 102.771 167.583 103.099C166.489 103.41 165.462 103.91 164.551 104.576C163.705 105.178 163.009 105.957 162.515 106.856C161.983 107.815 161.715 108.891 161.735 109.98C161.709 111.504 162.213 112.992 163.164 114.202C164.354 115.598 165.958 116.601 167.756 117.072L172.088 118.339C173.159 118.583 174.155 119.075 174.99 119.774C175.509 120.309 175.789 121.022 175.77 121.758C175.779 122.292 175.644 122.819 175.378 123.286C175.111 123.753 174.724 124.143 174.254 124.418C172.968 125.048 171.53 125.325 170.095 125.22ZM144.928 104.745C144.861 104.331 144.664 103.948 144.365 103.648C144.041 103.415 143.639 103.309 143.239 103.352H140.856C140.458 103.331 140.063 103.434 139.73 103.648C139.414 103.937 139.214 104.326 139.167 104.745L134.835 123.32L129.897 104.745C129.818 104.326 129.606 103.942 129.29 103.648C129.29 103.648 128.727 103.352 128.164 103.352H125.349C124.872 103.352 124.656 103.605 124.656 104.07C124.698 104.458 124.785 104.841 124.915 105.21L131.673 126.909C131.761 127.295 131.939 127.656 132.193 127.964C132.533 128.157 132.926 128.246 133.319 128.217H135.788C136.195 128.244 136.601 128.156 136.958 127.964C137.231 127.635 137.41 127.242 137.477 126.824L141.809 108.756L146.141 126.866C146.177 127.28 146.361 127.669 146.661 127.964C147.001 128.196 147.417 128.301 147.83 128.259H150.299C150.684 128.278 151.064 128.174 151.382 127.964C151.708 127.677 151.922 127.289 151.989 126.866L158.963 105.167C158.988 104.943 158.988 104.716 158.963 104.492C158.979 104.338 158.979 104.182 158.963 104.028C158.977 103.93 158.968 103.831 158.936 103.737C158.904 103.644 158.851 103.559 158.779 103.489C158.708 103.419 158.62 103.367 158.524 103.336C158.428 103.305 158.326 103.296 158.226 103.31H155.541C155.143 103.294 154.75 103.397 154.414 103.605C154.148 103.927 153.956 104.302 153.851 104.703L149.52 123.742L144.928 104.745ZM113.87 113.737C112.85 113.607 111.823 113.536 110.794 113.526C108.245 113.396 105.734 114.176 103.733 115.721C102.881 116.433 102.205 117.322 101.755 118.323C101.305 119.325 101.093 120.412 101.134 121.505C101.084 122.5 101.247 123.494 101.612 124.424C101.978 125.355 102.538 126.201 103.257 126.909C104.03 127.604 104.938 128.141 105.927 128.489C106.917 128.837 107.968 128.989 109.018 128.935C110.671 128.981 112.314 128.655 113.816 127.981C115.319 127.308 116.642 126.305 117.682 125.051C117.935 125.617 118.224 126.167 118.548 126.697C118.856 127.161 119.204 127.599 119.587 128.006C119.692 128.11 119.817 128.192 119.955 128.248C120.092 128.304 120.24 128.333 120.389 128.333C120.538 128.333 120.686 128.304 120.823 128.248C120.961 128.192 121.085 128.11 121.19 128.006L123.01 126.824C123.161 126.732 123.291 126.609 123.388 126.463C123.485 126.317 123.548 126.152 123.573 125.98C123.643 125.76 123.643 125.524 123.573 125.304C123.222 124.665 122.918 124.002 122.663 123.32C122.431 122.496 122.329 121.642 122.36 120.787V111.88C122.463 110.629 122.305 109.37 121.896 108.18C121.487 106.99 120.834 105.894 119.977 104.956C118.876 104.054 117.597 103.383 116.218 102.983C114.84 102.584 113.391 102.465 111.964 102.634C110.501 102.634 109.045 102.818 107.632 103.183C106.373 103.468 105.153 103.893 103.993 104.45C103.688 104.581 103.42 104.784 103.214 105.041C103.108 105.356 103.108 105.696 103.214 106.012V107.405C103.214 107.996 103.214 108.249 103.82 108.249C103.977 108.282 104.14 108.282 104.297 108.249L105.293 107.911C106.173 107.491 107.085 107.138 108.022 106.856C109.042 106.607 110.089 106.479 111.141 106.476C112.815 106.305 114.492 106.774 115.819 107.785C116.85 109.048 117.333 110.654 117.162 112.26V114.328L113.87 113.737ZM117.248 117.537V118.676C117.252 119.502 117.15 120.324 116.945 121.125C116.762 121.797 116.421 122.419 115.949 122.94C115.227 123.768 114.281 124.382 113.22 124.713C112.273 125.038 111.278 125.209 110.274 125.22C109.725 125.26 109.173 125.191 108.652 125.016C108.13 124.842 107.651 124.567 107.242 124.207C106.863 123.806 106.574 123.332 106.395 122.816C106.216 122.3 106.15 121.752 106.202 121.209C106.167 120.603 106.277 119.997 106.526 119.44C106.774 118.882 107.153 118.39 107.632 118.001C108.894 117.139 110.427 116.735 111.964 116.861H114.649C115.528 117.04 116.395 117.265 117.248 117.537ZM174.47 140.629C164.115 144.875 153 147.084 141.766 147.13C126.728 147.133 111.949 143.321 98.8819 136.069C97.8423 135.436 97.0193 136.492 97.9289 137.294C109.691 147.656 125.001 153.362 140.856 153.293C153.36 153.323 165.584 149.691 175.943 142.866C177.416 141.557 176.073 139.827 174.47 140.629Z" fill="white"/>
<path d="M168.489 136.66C167.666 137.251 167.796 138.054 168.706 137.927C171.781 137.547 178.582 136.787 179.795 138.307C181.008 139.827 178.452 146.032 177.283 148.819C176.936 149.663 177.716 150.001 178.496 149.367C180.468 147.598 181.98 145.396 182.906 142.944C183.833 140.492 184.147 137.861 183.824 135.267C181.334 134.312 178.65 133.94 175.986 134.182C173.322 134.424 170.754 135.273 168.489 136.66Z" fill="#078449"/>
</g>
<path d="M208.845 129.991L187.58 139.201V153.017C187.58 165.797 196.653 177.748 208.845 180.65C221.037 177.748 230.11 165.797 230.11 153.017V139.201L208.845 129.991ZM208.845 143.807C212.153 143.807 215.46 146.34 215.46 149.563V153.017C216.878 153.017 218.296 154.399 218.296 156.011V164.07C218.296 165.452 216.878 166.834 215.224 166.834H202.229C200.811 166.834 199.394 165.452 199.394 163.84V155.781C199.394 154.399 200.811 153.017 202.229 153.017V149.563C202.229 146.34 205.537 143.807 208.845 143.807ZM208.845 146.57C206.955 146.57 205.301 147.721 205.301 149.563V153.017H212.389V149.563C212.389 147.721 210.735 146.57 208.845 146.57Z" fill="#078449"/>
<path d="M59.2012 62.8882H80.4012" stroke="#078449" stroke-miterlimit="10" stroke-linecap="round" stroke-linejoin="round"/>
<path d="M59.2012 65.2598H80.4012" stroke="#078449" stroke-miterlimit="10" stroke-linecap="round" stroke-linejoin="round"/>
<path d="M78.6906 51.7976C77.1917 49.7748 75.4071 48.5192 72.9802 47.7519C70.5532 46.9847 68.3404 46.9847 65.9135 47.7519C63.4866 48.5192 61.702 49.8445 60.203 51.7976C58.704 53.8204 57.9902 55.9129 57.9902 58.3543H69.4112H80.8321C80.9035 55.9129 80.1896 53.8204 78.6906 51.7976Z" fill="#92E3A9"/>
<path d="M69.4844 58.3543L78.6925 51.7976C80.1915 53.8204 80.9053 55.9129 80.9053 58.3543H69.4844Z" stroke="white" stroke-width="0.5" stroke-miterlimit="10" stroke-linecap="round" stroke-linejoin="round"/>
<path d="M69.4844 58.3543L72.982 47.752C75.409 48.5192 77.1935 49.8445 78.6925 51.7976L69.4844 58.3543Z" stroke="white" stroke-width="0.5" stroke-miterlimit="10" stroke-linecap="round" stroke-linejoin="round"/>
<path d="M69.4781 58.3543L65.9805 47.7519C68.4074 46.9847 70.6202 46.9847 73.0472 47.7519L69.4781 58.3543Z" stroke="white" stroke-width="0.5" stroke-miterlimit="10" stroke-linecap="round" stroke-linejoin="round"/>
<path d="M69.4796 58.3543L60.2715 51.7976C61.7705 49.7748 63.555 48.5192 65.9819 47.752L69.4796 58.3543Z" stroke="white" stroke-width="0.5" stroke-miterlimit="10" stroke-linecap="round" stroke-linejoin="round"/>
<path d="M69.4815 58.3543H58.0605C58.0605 55.9129 58.7744 53.8204 60.2734 51.7976L69.4815 58.3543Z" stroke="white" stroke-width="0.5" stroke-miterlimit="10" stroke-linecap="round" stroke-linejoin="round"/>
<path d="M70.8375 58.3543C70.8375 57.587 70.195 57.029 69.4812 57.029C68.696 57.029 68.125 57.6567 68.125 58.3543C68.125 59.1215 68.7674 59.6796 69.4812 59.6796C70.2664 59.6796 70.8375 59.1215 70.8375 58.3543Z" fill="#078449"/>
<path d="M69.4844 58.3543L74.1955 51.6581" stroke="#078449" stroke-miterlimit="10" stroke-linecap="round" stroke-linejoin="round"/>
<path d="M224.514 60.5166H245.714" stroke="#078449" stroke-miterlimit="10" stroke-linecap="round" stroke-linejoin="round"/>
<path d="M224.514 62.8882H245.714" stroke="#078449" stroke-miterlimit="10" stroke-linecap="round" stroke-linejoin="round"/>
<path d="M244.003 49.426C242.504 47.4032 240.72 46.1476 238.293 45.3803C235.866 44.6131 233.653 44.6131 231.226 45.3803C228.799 46.1476 227.015 47.4729 225.516 49.426C224.017 51.4488 223.303 53.5414 223.303 55.9827H234.724H246.145C246.216 53.5414 245.502 51.4488 244.003 49.426Z" fill="#92E3A9"/>
<path d="M234.797 55.9827L244.005 49.426C245.504 51.4488 246.218 53.5413 246.218 55.9827H234.797Z" stroke="white" stroke-width="0.5" stroke-miterlimit="10" stroke-linecap="round" stroke-linejoin="round"/>
<path d="M234.797 55.9827L238.295 45.3803C240.721 46.1476 242.506 47.4729 244.005 49.426L234.797 55.9827Z" stroke="white" stroke-width="0.5" stroke-miterlimit="10" stroke-linecap="round" stroke-linejoin="round"/>
<path d="M234.791 55.9827L231.293 45.3803C233.72 44.6131 235.933 44.6131 238.36 45.3803L234.791 55.9827Z" stroke="white" stroke-width="0.5" stroke-miterlimit="10" stroke-linecap="round" stroke-linejoin="round"/>
<path d="M234.792 55.9827L225.584 49.426C227.083 47.4031 228.867 46.1476 231.294 45.3803L234.792 55.9827Z" stroke="white" stroke-width="0.5" stroke-miterlimit="10" stroke-linecap="round" stroke-linejoin="round"/>
<path d="M234.794 55.9827H223.373C223.373 53.5414 224.087 51.4488 225.586 49.426L234.794 55.9827Z" stroke="white" stroke-width="0.5" stroke-miterlimit="10" stroke-linecap="round" stroke-linejoin="round"/>
<path d="M236.15 55.9827C236.15 55.2154 235.508 54.6574 234.794 54.6574C234.009 54.6574 233.438 55.2852 233.438 55.9827C233.438 56.75 234.08 57.308 234.794 57.308C235.579 57.308 236.15 56.75 236.15 55.9827Z" fill="#078449"/>
<path d="M234.797 55.9827L239.508 49.2865" stroke="#078449" stroke-miterlimit="10" stroke-linecap="round" stroke-linejoin="round"/>
<path d="M59.2012 185.698H80.4012" stroke="#078449" stroke-miterlimit="10" stroke-linecap="round" stroke-linejoin="round"/>
<path d="M59.2012 188.069H80.4012" stroke="#078449" stroke-miterlimit="10" stroke-linecap="round" stroke-linejoin="round"/>
<path d="M78.6906 174.607C77.1917 172.584 75.4071 171.329 72.9802 170.562C70.5532 169.794 68.3404 169.794 65.9135 170.562C63.4866 171.329 61.702 172.654 60.203 174.607C58.704 176.63 57.9902 178.723 57.9902 181.164H69.4112H80.8321C80.9035 178.723 80.1896 176.63 78.6906 174.607Z" fill="#92E3A9"/>
<path d="M69.4844 181.164L78.6925 174.607C80.1915 176.63 80.9053 178.723 80.9053 181.164H69.4844Z" stroke="white" stroke-width="0.5" stroke-miterlimit="10" stroke-linecap="round" stroke-linejoin="round"/>
<path d="M69.4844 181.164L72.982 170.562C75.409 171.329 77.1935 172.654 78.6925 174.607L69.4844 181.164Z" stroke="white" stroke-width="0.5" stroke-miterlimit="10" stroke-linecap="round" stroke-linejoin="round"/>
<path d="M69.4781 181.164L65.9805 170.562C68.4074 169.794 70.6202 169.794 73.0472 170.562L69.4781 181.164Z" stroke="white" stroke-width="0.5" stroke-miterlimit="10" stroke-linecap="round" stroke-linejoin="round"/>
<path d="M69.4796 181.164L60.2715 174.607C61.7705 172.584 63.555 171.329 65.9819 170.562L69.4796 181.164Z" stroke="white" stroke-width="0.5" stroke-miterlimit="10" stroke-linecap="round" stroke-linejoin="round"/>
<path d="M69.4815 181.164H58.0605C58.0605 178.723 58.7744 176.63 60.2734 174.607L69.4815 181.164Z" stroke="white" stroke-width="0.5" stroke-miterlimit="10" stroke-linecap="round" stroke-linejoin="round"/>
<path d="M70.8375 181.164C70.8375 180.397 70.195 179.839 69.4812 179.839C68.696 179.839 68.125 180.466 68.125 181.164C68.125 181.931 68.7674 182.489 69.4812 182.489C70.2664 182.489 70.8375 181.931 70.8375 181.164Z" fill="#078449"/>
<path d="M69.4844 181.164L74.1955 174.468" stroke="#078449" stroke-miterlimit="10" stroke-linecap="round" stroke-linejoin="round"/>
<path d="M224.514 183.326H245.714" stroke="#078449" stroke-miterlimit="10" stroke-linecap="round" stroke-linejoin="round"/>
<path d="M224.514 185.698H245.714" stroke="#078449" stroke-miterlimit="10" stroke-linecap="round" stroke-linejoin="round"/>
<path d="M244.003 172.236C242.504 170.213 240.72 168.957 238.293 168.19C235.866 167.423 233.653 167.423 231.226 168.19C228.799 168.957 227.015 170.283 225.516 172.236C224.017 174.258 223.303 176.351 223.303 178.792H234.724H246.145C246.216 176.351 245.502 174.258 244.003 172.236Z" fill="#92E3A9"/>
<path d="M234.797 178.792L244.005 172.236C245.504 174.258 246.218 176.351 246.218 178.792H234.797Z" stroke="white" stroke-width="0.5" stroke-miterlimit="10" stroke-linecap="round" stroke-linejoin="round"/>
<path d="M234.797 178.792L238.295 168.19C240.721 168.957 242.506 170.283 244.005 172.236L234.797 178.792Z" stroke="white" stroke-width="0.5" stroke-miterlimit="10" stroke-linecap="round" stroke-linejoin="round"/>
<path d="M234.791 178.792L231.293 168.19C233.72 167.423 235.933 167.423 238.36 168.19L234.791 178.792Z" stroke="white" stroke-width="0.5" stroke-miterlimit="10" stroke-linecap="round" stroke-linejoin="round"/>
<path d="M234.792 178.792L225.584 172.236C227.083 170.213 228.867 168.957 231.294 168.19L234.792 178.792Z" stroke="white" stroke-width="0.5" stroke-miterlimit="10" stroke-linecap="round" stroke-linejoin="round"/>
<path d="M234.794 178.792H223.373C223.373 176.351 224.087 174.258 225.586 172.236L234.794 178.792Z" stroke="white" stroke-width="0.5" stroke-miterlimit="10" stroke-linecap="round" stroke-linejoin="round"/>
<path d="M236.15 178.792C236.15 178.025 235.508 177.467 234.794 177.467C234.009 177.467 233.438 178.095 233.438 178.792C233.438 179.56 234.08 180.118 234.794 180.118C235.579 180.118 236.15 179.56 236.15 178.792Z" fill="#078449"/>
<path d="M234.797 178.792L239.508 172.096" stroke="#078449" stroke-miterlimit="10" stroke-linecap="round" stroke-linejoin="round"/>
</g>
<defs>
<filter id="filter0_d_749_389" x="0.478516" y="0.178467" width="287.521" height="250.966" filterUnits="userSpaceOnUse" color-interpolation-filters="sRGB">
<feFlood flood-opacity="0" result="BackgroundImageFix"/>
<feColorMatrix in="SourceAlpha" type="matrix" values="0 0 0 0 0 0 0 0 0 0 0 0 0 0 0 0 0 0 127 0" result="hardAlpha"/>
<feMorphology radius="2" operator="dilate" in="SourceAlpha" result="effect1_dropShadow_749_389"/>
<feOffset/>
<feGaussianBlur stdDeviation="2"/>
<feComposite in2="hardAlpha" operator="out"/>
<feColorMatrix type="matrix" values="0 0 0 0 0 0 0 0 0 0 0 0 0 0 0 0 0 0 0.11 0"/>
<feBlend mode="normal" in2="BackgroundImageFix" result="effect1_dropShadow_749_389"/>
<feBlend mode="normal" in="SourceGraphic" in2="effect1_dropShadow_749_389" result="shape"/>
</filter>
<filter id="filter1_d_749_389" x="39.6719" y="36.8919" width="221.344" height="173.416" filterUnits="userSpaceOnUse" color-interpolation-filters="sRGB">
<feFlood flood-opacity="0" result="BackgroundImageFix"/>
<feColorMatrix in="SourceAlpha" type="matrix" values="0 0 0 0 0 0 0 0 0 0 0 0 0 0 0 0 0 0 127 0" result="hardAlpha"/>
<feOffset dy="4"/>
<feGaussianBlur stdDeviation="2"/>
<feComposite in2="hardAlpha" operator="out"/>
<feColorMatrix type="matrix" values="0 0 0 0 0 0 0 0 0 0 0 0 0 0 0 0 0 0 0.1 0"/>
<feBlend mode="normal" in2="BackgroundImageFix" result="effect1_dropShadow_749_389"/>
<feBlend mode="normal" in="SourceGraphic" in2="effect1_dropShadow_749_389" result="shape"/>
</filter>
<clipPath id="clip0_749_389">
<rect width="225.91" height="191.89" fill="white" transform="translate(31.2852 29.7163)"/>
</clipPath>
<clipPath id="clip1_749_389">
<rect width="168.543" height="153.512" fill="white" transform="translate(57.3711 37.3919)"/>
</clipPath>
</defs>
</svg>
