<svg width="288" height="349" viewBox="0 0 288 349" fill="none" xmlns="http://www.w3.org/2000/svg">
<rect x="72.4883" y="312.746" width="150" height="35.38" rx="17.69" fill="#E7E7E7"/>
<path d="M94.4963 333.696C95.1469 334.08 95.7763 334.352 96.3843 334.512C97.0029 334.661 97.5576 334.736 98.0483 334.736C98.7843 334.736 99.3816 334.592 99.8403 334.304C100.31 334.005 100.544 333.573 100.544 333.008C100.544 332.688 100.464 332.416 100.304 332.192C100.144 331.968 99.9309 331.771 99.6643 331.6C99.4083 331.429 99.1043 331.285 98.7523 331.168C98.4109 331.04 98.0589 330.912 97.6963 330.784C97.2803 330.645 96.8643 330.496 96.4483 330.336C96.0429 330.176 95.6749 329.979 95.3443 329.744C95.0136 329.499 94.7469 329.2 94.5443 328.848C94.3416 328.496 94.2403 328.053 94.2403 327.52C94.2403 326.976 94.3469 326.512 94.5603 326.128C94.7843 325.744 95.0723 325.429 95.4243 325.184C95.7869 324.928 96.1976 324.747 96.6563 324.64C97.1256 324.523 97.6003 324.464 98.0803 324.464C98.7416 324.464 99.3816 324.555 100 324.736C100.63 324.917 101.19 325.163 101.68 325.472L101.12 326.704C100.587 326.427 100.07 326.213 99.5683 326.064C99.0669 325.904 98.5763 325.824 98.0963 325.824C97.8083 325.824 97.5256 325.856 97.2483 325.92C96.9709 325.973 96.7203 326.064 96.4963 326.192C96.2829 326.32 96.1069 326.485 95.9683 326.688C95.8403 326.891 95.7763 327.136 95.7763 327.424C95.7763 327.701 95.8403 327.941 95.9683 328.144C96.1069 328.336 96.2883 328.507 96.5123 328.656C96.7363 328.805 96.9976 328.939 97.2963 329.056C97.6056 329.173 97.9309 329.291 98.2723 329.408C98.6989 329.557 99.1363 329.717 99.5843 329.888C100.032 330.059 100.438 330.277 100.8 330.544C101.174 330.811 101.478 331.136 101.712 331.52C101.958 331.904 102.08 332.379 102.08 332.944C102.08 333.456 101.974 333.909 101.76 334.304C101.558 334.699 101.275 335.029 100.912 335.296C100.55 335.552 100.118 335.749 99.6163 335.888C99.1149 336.027 98.5709 336.096 97.9843 336.096C97.3336 336.096 96.6616 336.011 95.9683 335.84C95.2749 335.659 94.5923 335.355 93.9203 334.928L94.4963 333.696ZM109.058 335.936C108.994 335.669 108.951 335.403 108.93 335.136C108.066 335.776 107.202 336.096 106.338 336.096C105.89 336.096 105.5 336.011 105.17 335.84C104.85 335.669 104.588 335.44 104.386 335.152C104.183 334.853 104.034 334.507 103.938 334.112C103.842 333.717 103.794 333.296 103.794 332.848V327.696L105.218 327.568V332.784C105.218 333.072 105.239 333.344 105.282 333.6C105.335 333.856 105.415 334.08 105.522 334.272C105.639 334.453 105.794 334.597 105.986 334.704C106.188 334.811 106.434 334.864 106.722 334.864C107.042 334.864 107.388 334.795 107.762 334.656C108.146 334.507 108.524 334.309 108.898 334.064V327.696L110.322 327.568V333.968C110.322 334.277 110.327 334.608 110.338 334.96C110.359 335.301 110.407 335.627 110.482 335.936H109.058ZM114.094 335.936H112.878V324.016L114.302 323.888V328.544C114.707 328.224 115.129 327.973 115.566 327.792C116.003 327.6 116.462 327.504 116.942 327.504C117.475 327.504 117.945 327.621 118.35 327.856C118.766 328.091 119.113 328.405 119.39 328.8C119.667 329.184 119.875 329.627 120.014 330.128C120.163 330.629 120.238 331.147 120.238 331.68C120.238 332.277 120.153 332.843 119.982 333.376C119.822 333.909 119.582 334.379 119.262 334.784C118.942 335.189 118.547 335.509 118.078 335.744C117.619 335.979 117.091 336.096 116.494 336.096C116.089 336.096 115.689 336.037 115.294 335.92C114.899 335.792 114.553 335.605 114.254 335.36L114.094 335.936ZM114.302 334.224C114.59 334.416 114.905 334.571 115.246 334.688C115.598 334.805 115.955 334.864 116.318 334.864C116.745 334.864 117.113 334.779 117.422 334.608C117.742 334.437 118.003 334.203 118.206 333.904C118.409 333.605 118.558 333.264 118.654 332.88C118.75 332.496 118.798 332.085 118.798 331.648C118.798 331.253 118.755 330.88 118.67 330.528C118.585 330.165 118.451 329.856 118.27 329.6C118.099 329.333 117.875 329.125 117.598 328.976C117.321 328.816 116.995 328.736 116.622 328.736C116.217 328.736 115.801 328.821 115.374 328.992C114.958 329.163 114.601 329.355 114.302 329.568V334.224ZM127.069 329.408C126.642 329.195 126.232 329.024 125.837 328.896C125.442 328.768 125.053 328.704 124.669 328.704C124.466 328.704 124.269 328.725 124.077 328.768C123.896 328.811 123.73 328.875 123.581 328.96C123.442 329.045 123.33 329.152 123.245 329.28C123.16 329.397 123.117 329.541 123.117 329.712C123.117 329.893 123.165 330.059 123.261 330.208C123.368 330.347 123.506 330.475 123.677 330.592C123.848 330.699 124.05 330.8 124.285 330.896C124.52 330.981 124.765 331.067 125.021 331.152C125.341 331.259 125.661 331.376 125.981 331.504C126.301 331.632 126.594 331.797 126.861 332C127.128 332.192 127.341 332.432 127.501 332.72C127.672 333.008 127.757 333.36 127.757 333.776C127.757 334.213 127.666 334.581 127.485 334.88C127.314 335.168 127.08 335.403 126.781 335.584C126.493 335.765 126.157 335.893 125.773 335.968C125.389 336.053 124.989 336.096 124.573 336.096C124.05 336.096 123.533 336.037 123.021 335.92C122.509 335.792 122.034 335.589 121.597 335.312L122.093 334.192C122.509 334.405 122.941 334.576 123.389 334.704C123.848 334.832 124.285 334.896 124.701 334.896C124.904 334.896 125.101 334.88 125.293 334.848C125.496 334.805 125.672 334.747 125.821 334.672C125.981 334.587 126.104 334.475 126.189 334.336C126.285 334.197 126.333 334.032 126.333 333.84C126.333 333.648 126.28 333.477 126.173 333.328C126.066 333.179 125.922 333.051 125.741 332.944C125.56 332.827 125.341 332.72 125.085 332.624C124.829 332.517 124.557 332.416 124.269 332.32C123.96 332.213 123.65 332.096 123.341 331.968C123.032 331.829 122.754 331.664 122.509 331.472C122.264 331.28 122.066 331.051 121.917 330.784C121.768 330.507 121.693 330.181 121.693 329.808C121.693 329.424 121.773 329.088 121.933 328.8C122.093 328.512 122.306 328.272 122.573 328.08C122.85 327.888 123.17 327.744 123.533 327.648C123.896 327.552 124.285 327.504 124.701 327.504C125.17 327.504 125.656 327.568 126.157 327.696C126.658 327.813 127.122 328.011 127.549 328.288L127.069 329.408ZM135.899 335.312C135.504 335.579 135.051 335.776 134.539 335.904C134.037 336.032 133.531 336.096 133.019 336.096C132.389 336.096 131.829 335.995 131.339 335.792C130.859 335.579 130.453 335.285 130.123 334.912C129.792 334.528 129.541 334.075 129.371 333.552C129.2 333.019 129.115 332.432 129.115 331.792C129.115 331.173 129.195 330.603 129.355 330.08C129.525 329.557 129.776 329.104 130.107 328.72C130.437 328.336 130.848 328.037 131.339 327.824C131.829 327.611 132.4 327.504 133.051 327.504C133.605 327.504 134.112 327.579 134.571 327.728C135.029 327.877 135.435 328.064 135.787 328.288L135.307 329.408C134.88 329.184 134.485 329.019 134.123 328.912C133.76 328.795 133.408 328.736 133.067 328.736C132.277 328.736 131.659 329.003 131.211 329.536C130.773 330.059 130.555 330.811 130.555 331.792C130.555 332.229 130.603 332.64 130.699 333.024C130.805 333.397 130.965 333.723 131.179 334C131.392 334.267 131.659 334.48 131.979 334.64C132.309 334.789 132.693 334.864 133.131 334.864C133.536 334.864 133.931 334.805 134.315 334.688C134.699 334.56 135.067 334.395 135.419 334.192L135.899 335.312ZM138.989 335.936H137.565V327.696L138.845 327.568L138.989 328.832C139.33 328.416 139.682 328.091 140.045 327.856C140.418 327.621 140.813 327.504 141.229 327.504C141.517 327.504 141.837 327.563 142.189 327.68L141.853 329.056C141.693 329.003 141.538 328.971 141.389 328.96C141.25 328.939 141.122 328.928 141.005 328.928C140.589 328.928 140.226 329.008 139.917 329.168C139.607 329.328 139.298 329.547 138.989 329.824V335.936ZM145.083 335.936H143.659V327.696L145.083 327.568V335.936ZM145.291 324.8C145.291 325.056 145.206 325.269 145.035 325.44C144.865 325.611 144.641 325.696 144.363 325.696C144.086 325.696 143.862 325.611 143.691 325.44C143.521 325.269 143.435 325.056 143.435 324.8C143.435 324.533 143.521 324.32 143.691 324.16C143.862 324 144.086 323.92 144.363 323.92C144.641 323.92 144.865 324 145.035 324.16C145.206 324.32 145.291 324.533 145.291 324.8ZM148.891 335.936H147.675V324.016L149.099 323.888V328.544C149.504 328.224 149.926 327.973 150.363 327.792C150.8 327.6 151.259 327.504 151.739 327.504C152.272 327.504 152.742 327.621 153.147 327.856C153.563 328.091 153.91 328.405 154.187 328.8C154.464 329.184 154.672 329.627 154.811 330.128C154.96 330.629 155.035 331.147 155.035 331.68C155.035 332.277 154.95 332.843 154.779 333.376C154.619 333.909 154.379 334.379 154.059 334.784C153.739 335.189 153.344 335.509 152.875 335.744C152.416 335.979 151.888 336.096 151.291 336.096C150.886 336.096 150.486 336.037 150.091 335.92C149.696 335.792 149.35 335.605 149.051 335.36L148.891 335.936ZM149.099 334.224C149.387 334.416 149.702 334.571 150.043 334.688C150.395 334.805 150.752 334.864 151.115 334.864C151.542 334.864 151.91 334.779 152.219 334.608C152.539 334.437 152.8 334.203 153.003 333.904C153.206 333.605 153.355 333.264 153.451 332.88C153.547 332.496 153.595 332.085 153.595 331.648C153.595 331.253 153.552 330.88 153.467 330.528C153.382 330.165 153.248 329.856 153.067 329.6C152.896 329.333 152.672 329.125 152.395 328.976C152.118 328.816 151.792 328.736 151.419 328.736C151.014 328.736 150.598 328.821 150.171 328.992C149.755 329.163 149.398 329.355 149.099 329.568V334.224ZM163.258 335.312C162.863 335.579 162.41 335.776 161.898 335.904C161.386 336.032 160.89 336.096 160.41 336.096C159.759 336.096 159.189 335.989 158.698 335.776C158.207 335.563 157.797 335.264 157.466 334.88C157.135 334.485 156.885 334.021 156.714 333.488C156.554 332.944 156.474 332.352 156.474 331.712C156.474 331.147 156.538 330.608 156.666 330.096C156.805 329.584 157.018 329.136 157.306 328.752C157.594 328.368 157.957 328.064 158.394 327.84C158.842 327.616 159.375 327.504 159.994 327.504C160.549 327.504 161.039 327.6 161.466 327.792C161.893 327.973 162.25 328.229 162.538 328.56C162.826 328.891 163.045 329.291 163.194 329.76C163.343 330.219 163.418 330.72 163.418 331.264C163.418 331.659 163.386 332.005 163.322 332.304H157.914C157.999 333.093 158.25 333.717 158.666 334.176C159.082 334.635 159.685 334.864 160.474 334.864C160.879 334.864 161.274 334.805 161.658 334.688C162.053 334.56 162.426 334.395 162.778 334.192L163.258 335.312ZM162.01 331.168C161.999 330.816 161.951 330.491 161.866 330.192C161.781 329.883 161.658 329.621 161.498 329.408C161.338 329.184 161.135 329.013 160.89 328.896C160.645 328.768 160.351 328.704 160.01 328.704C159.658 328.704 159.354 328.768 159.098 328.896C158.853 329.024 158.645 329.2 158.474 329.424C158.314 329.648 158.186 329.909 158.09 330.208C157.994 330.507 157.93 330.827 157.898 331.168H162.01ZM178.225 335.936H176.753L171.073 327.136V335.936H169.601V324.624H171.073L176.753 333.424V324.624H178.225V335.936ZM185.436 334.624C185.745 334.464 186.001 334.251 186.204 333.984C186.406 333.707 186.556 333.381 186.652 333.008C186.748 332.635 186.796 332.229 186.796 331.792C186.796 331.365 186.748 330.965 186.652 330.592C186.556 330.219 186.406 329.899 186.204 329.632C186.001 329.355 185.745 329.136 185.436 328.976C185.126 328.816 184.758 328.736 184.332 328.736C183.894 328.736 183.521 328.816 183.212 328.976C182.902 329.136 182.641 329.355 182.428 329.632C182.225 329.899 182.076 330.219 181.98 330.592C181.884 330.965 181.836 331.365 181.836 331.792C181.836 332.229 181.884 332.635 181.98 333.008C182.076 333.381 182.225 333.707 182.428 333.984C182.641 334.251 182.902 334.464 183.212 334.624C183.521 334.784 183.894 334.864 184.332 334.864C184.758 334.864 185.126 334.784 185.436 334.624ZM187.228 334.912C186.908 335.285 186.502 335.579 186.012 335.792C185.532 335.995 184.972 336.096 184.332 336.096C183.692 336.096 183.126 335.995 182.636 335.792C182.156 335.579 181.745 335.285 181.404 334.912C181.073 334.528 180.822 334.075 180.652 333.552C180.481 333.019 180.396 332.432 180.396 331.792C180.396 331.163 180.481 330.587 180.652 330.064C180.822 329.531 181.073 329.077 181.404 328.704C181.745 328.32 182.156 328.027 182.636 327.824C183.126 327.611 183.692 327.504 184.332 327.504C184.961 327.504 185.516 327.611 185.996 327.824C186.486 328.027 186.897 328.32 187.228 328.704C187.558 329.077 187.809 329.531 187.98 330.064C188.15 330.587 188.236 331.163 188.236 331.792C188.236 332.432 188.15 333.019 187.98 333.552C187.809 334.075 187.558 334.528 187.228 334.912ZM198.349 335.936H196.733L194.893 330.528L193.165 335.936H191.549L189.293 327.664H190.717L192.381 334.384L194.349 328.32H195.533L197.501 334.416L199.261 327.664H200.589L198.349 335.936Z" fill="#767676"/>
<path d="M100.838 279.39H97.3343V267.75L93.1583 274.422H91.4303L87.3023 267.822V279.39H83.9663V262.422H87.5663L92.4383 270.222L97.3103 262.422H100.838V279.39ZM109.735 276.966C110.743 276.966 111.471 276.614 111.919 275.91C112.383 275.206 112.615 274.278 112.615 273.126C112.615 271.974 112.383 271.046 111.919 270.342C111.471 269.622 110.743 269.262 109.735 269.262C108.727 269.262 107.991 269.622 107.527 270.342C107.063 271.046 106.831 271.974 106.831 273.126C106.831 274.278 107.063 275.206 107.527 275.91C107.991 276.614 108.727 276.966 109.735 276.966ZM114.367 277.806C113.839 278.382 113.183 278.83 112.399 279.15C111.615 279.47 110.727 279.63 109.735 279.63C108.743 279.63 107.855 279.47 107.071 279.15C106.287 278.83 105.623 278.382 105.079 277.806C104.535 277.23 104.119 276.55 103.831 275.766C103.559 274.966 103.423 274.086 103.423 273.126C103.423 272.166 103.559 271.286 103.831 270.486C104.119 269.686 104.535 268.998 105.079 268.422C105.623 267.846 106.287 267.398 107.071 267.078C107.855 266.758 108.743 266.598 109.735 266.598C110.727 266.598 111.615 266.758 112.399 267.078C113.183 267.398 113.839 267.846 114.367 268.422C114.911 268.998 115.319 269.686 115.591 270.486C115.879 271.286 116.023 272.166 116.023 273.126C116.023 274.086 115.879 274.966 115.591 275.766C115.319 276.55 114.911 277.23 114.367 277.806ZM126.431 279.39C126.303 278.846 126.223 278.254 126.191 277.614C126.159 276.974 126.143 276.422 126.143 275.958V271.686C126.143 271.35 126.111 271.038 126.047 270.75C125.999 270.446 125.911 270.19 125.783 269.982C125.655 269.758 125.471 269.582 125.231 269.454C125.007 269.326 124.727 269.262 124.391 269.262C123.975 269.262 123.543 269.35 123.095 269.526C122.647 269.702 122.199 269.95 121.751 270.27V279.39H118.367V266.982L121.079 266.694L121.391 268.47C121.999 267.958 122.655 267.518 123.359 267.15C124.063 266.782 124.839 266.598 125.687 266.598C126.359 266.598 126.935 266.726 127.415 266.982C127.895 267.222 128.287 267.566 128.591 268.014C128.911 268.446 129.143 268.958 129.287 269.55C129.447 270.142 129.527 270.782 129.527 271.47V275.958C129.527 276.422 129.543 276.974 129.575 277.614C129.607 278.254 129.687 278.846 129.815 279.39H126.431ZM135.838 279.39H132.454V266.982L135.838 266.694V279.39ZM136.126 262.758C136.126 263.302 135.95 263.742 135.598 264.078C135.262 264.414 134.774 264.582 134.134 264.582C133.494 264.582 132.998 264.414 132.646 264.078C132.31 263.742 132.142 263.302 132.142 262.758C132.142 262.23 132.31 261.806 132.646 261.486C132.998 261.15 133.494 260.982 134.134 260.982C134.774 260.982 135.262 261.15 135.598 261.486C135.95 261.806 136.126 262.23 136.126 262.758ZM146.939 279.03C146.027 279.43 145.099 279.63 144.155 279.63C142.699 279.63 141.627 279.214 140.939 278.382C140.267 277.534 139.931 276.31 139.931 274.71V269.382H137.627V266.838H139.931V263.862L143.339 263.574V266.838H146.435V269.382H143.339V274.23C143.339 275.062 143.443 275.726 143.651 276.222C143.875 276.718 144.315 276.966 144.971 276.966C145.387 276.966 145.843 276.878 146.339 276.702L146.939 279.03ZM154.453 276.966C155.461 276.966 156.189 276.614 156.637 275.91C157.101 275.206 157.333 274.278 157.333 273.126C157.333 271.974 157.101 271.046 156.637 270.342C156.189 269.622 155.461 269.262 154.453 269.262C153.445 269.262 152.709 269.622 152.245 270.342C151.781 271.046 151.549 271.974 151.549 273.126C151.549 274.278 151.781 275.206 152.245 275.91C152.709 276.614 153.445 276.966 154.453 276.966ZM159.085 277.806C158.557 278.382 157.901 278.83 157.117 279.15C156.333 279.47 155.445 279.63 154.453 279.63C153.461 279.63 152.573 279.47 151.789 279.15C151.005 278.83 150.341 278.382 149.797 277.806C149.253 277.23 148.837 276.55 148.549 275.766C148.277 274.966 148.141 274.086 148.141 273.126C148.141 272.166 148.277 271.286 148.549 270.486C148.837 269.686 149.253 268.998 149.797 268.422C150.341 267.846 151.005 267.398 151.789 267.078C152.573 266.758 153.461 266.598 154.453 266.598C155.445 266.598 156.333 266.758 157.117 267.078C157.901 267.398 158.557 267.846 159.085 268.422C159.629 268.998 160.037 269.686 160.309 270.486C160.597 271.286 160.741 272.166 160.741 273.126C160.741 274.086 160.597 274.966 160.309 275.766C160.037 276.55 159.629 277.23 159.085 277.806ZM166.47 279.39H163.086V266.982L165.798 266.694L166.134 268.614C166.598 268.006 167.086 267.518 167.598 267.15C168.11 266.782 168.702 266.598 169.374 266.598C169.806 266.598 170.286 266.686 170.814 266.862L170.19 269.814C169.918 269.718 169.67 269.662 169.446 269.646C169.222 269.614 169.022 269.598 168.846 269.598C168.366 269.598 167.942 269.67 167.574 269.814C167.222 269.958 166.854 270.174 166.47 270.462V279.39ZM175.916 279.39H172.532V266.982L175.916 266.694V279.39ZM176.204 262.758C176.204 263.302 176.028 263.742 175.676 264.078C175.34 264.414 174.852 264.582 174.212 264.582C173.572 264.582 173.076 264.414 172.724 264.078C172.388 263.742 172.22 263.302 172.22 262.758C172.22 262.23 172.388 261.806 172.724 261.486C173.076 261.15 173.572 260.982 174.212 260.982C174.852 260.982 175.34 261.15 175.676 261.486C176.028 261.806 176.204 262.23 176.204 262.758ZM186.993 279.39C186.865 278.846 186.785 278.254 186.753 277.614C186.721 276.974 186.705 276.422 186.705 275.958V271.686C186.705 271.35 186.673 271.038 186.609 270.75C186.561 270.446 186.473 270.19 186.345 269.982C186.217 269.758 186.033 269.582 185.793 269.454C185.569 269.326 185.289 269.262 184.953 269.262C184.537 269.262 184.105 269.35 183.657 269.526C183.209 269.702 182.761 269.95 182.313 270.27V279.39H178.929V266.982L181.641 266.694L181.953 268.47C182.561 267.958 183.217 267.518 183.921 267.15C184.625 266.782 185.401 266.598 186.249 266.598C186.921 266.598 187.497 266.726 187.977 266.982C188.457 267.222 188.849 267.566 189.153 268.014C189.473 268.446 189.705 268.958 189.849 269.55C190.009 270.142 190.089 270.782 190.089 271.47V275.958C190.089 276.422 190.105 276.974 190.137 277.614C190.169 278.254 190.249 278.846 190.377 279.39H186.993ZM204.272 278.886C204.272 280.982 203.704 282.558 202.568 283.614C201.448 284.67 199.928 285.198 198.008 285.198C196.312 285.198 194.776 284.782 193.4 283.95L194.36 281.598C195.48 282.222 196.592 282.534 197.696 282.534C199.824 282.534 200.888 281.334 200.888 278.934V278.286C200.392 278.654 199.832 278.966 199.208 279.222C198.6 279.462 197.96 279.582 197.288 279.582C196.504 279.582 195.8 279.406 195.176 279.054C194.568 278.702 194.056 278.238 193.64 277.662C193.224 277.07 192.904 276.398 192.68 275.646C192.456 274.878 192.344 274.078 192.344 273.246C192.344 272.35 192.472 271.502 192.728 270.702C192.984 269.886 193.352 269.174 193.832 268.566C194.312 267.958 194.888 267.478 195.56 267.126C196.232 266.774 196.992 266.598 197.84 266.598C198.528 266.598 199.152 266.71 199.712 266.934C200.288 267.158 200.808 267.478 201.272 267.894L201.488 266.982L204.272 266.694V278.886ZM200.888 269.814C200.52 269.638 200.136 269.502 199.736 269.406C199.352 269.31 198.992 269.262 198.656 269.262C197.68 269.262 196.952 269.63 196.472 270.366C195.992 271.102 195.752 272.046 195.752 273.198C195.752 274.43 195.992 275.358 196.472 275.982C196.968 276.606 197.624 276.918 198.44 276.918C198.824 276.918 199.232 276.854 199.664 276.726C200.096 276.598 200.504 276.446 200.888 276.27V269.814Z" fill="#ACACAC"/>
<g filter="url(#filter0_d_749_126)">
<rect x="6.47852" y="6.17847" width="275.521" height="238.966" rx="10" fill="white"/>
</g>
<g clip-path="url(#clip0_749_126)">
<path d="M235.834 41.8012H32.5234V221.762H235.834V41.8012Z" fill="#B4FFC9"/>
<g filter="url(#filter1_d_749_126)">
<path d="M250.613 40.5434H42.3066V209.483H250.613V40.5434Z" fill="white" stroke="#078449" stroke-miterlimit="10"/>
<g opacity="0.05">
<path d="M212.375 152.077H55.8301V157.867H212.375V152.077Z" fill="black"/>
<path d="M212.375 162.261H55.8301V168.05H212.375V162.261Z" fill="black"/>
<path d="M212.375 172.445H55.8301V178.234H212.375V172.445Z" fill="black"/>
<path d="M212.375 182.698H55.8301V188.488H212.375V182.698Z" fill="black"/>
</g>
<path d="M129.936 166.934H120.986V193.928H129.936V166.934Z" fill="#92E3A9"/>
<path d="M119.965 155.774H111.016V193.859H119.965V155.774Z" fill="#078449"/>
<path d="M110.002 169.515H101.053V193.928H110.002V169.515Z" fill="#92E3A9"/>
<path d="M100.037 184.024H91.0879V193.859H100.037V184.024Z" fill="#078449"/>
<path d="M90.0001 164.772H81.0508V193.859H90.0001V164.772Z" fill="#92E3A9"/>
<path d="M80.0333 170.771H71.084V193.859H80.0333V170.771Z" fill="#078449"/>
<path d="M70.0684 185.349H61.1191V193.928H70.0684V185.349Z" fill="#92E3A9"/>
<path d="M150.816 166.934H141.867V193.928H150.816V166.934Z" fill="#078449"/>
<path d="M160.85 155.774H151.9V193.859H160.85V155.774Z" fill="#92E3A9"/>
<path d="M170.818 169.515H161.869V193.928H170.818V169.515Z" fill="#078449"/>
<path d="M180.785 184.024H171.836V193.859H180.785V184.024Z" fill="#92E3A9"/>
<path d="M190.75 164.772H181.801V193.859H190.75V164.772Z" fill="#078449"/>
<path d="M200.713 170.771H191.764V193.859H200.713V170.771Z" fill="#92E3A9"/>
<path d="M210.684 185.349H201.734V193.928H210.684V185.349Z" fill="#078449"/>
<path d="M22.002 33.4287H34.8157" stroke="white" stroke-miterlimit="10" stroke-linecap="round" stroke-linejoin="round"/>
<path d="M22.002 36.9861H34.8157" stroke="white" stroke-miterlimit="10" stroke-linecap="round" stroke-linejoin="round"/>
<path d="M22.002 40.5434H34.8157" stroke="white" stroke-miterlimit="10" stroke-linecap="round" stroke-linejoin="round"/>
<path opacity="0.05" d="M212.717 113.016H138.072V144.125H212.717V113.016Z" fill="black"/>
<path d="M212.717 138.755V144.125H138.072V126.827L150.005 123.409H166.818L173.53 132.198H185.463L194.819 138.755H212.717Z" fill="#92E3A9"/>
<path d="M190.346 118.805H208.244" stroke="#078449" stroke-miterlimit="10" stroke-linecap="round" stroke-linejoin="round"/>
<path d="M194.955 130.942V132.547H194.142V130.942H191.701V130.175L194.074 124.734H195.023V130.175H195.633V130.942H194.955ZM192.447 130.105H194.142V126.269L192.447 130.105Z" fill="#078449"/>
<path d="M197.058 127.873C197.329 127.455 197.668 127.245 198.21 127.245C199.159 127.245 199.634 128.013 199.634 129.129V130.663C199.634 131.849 199.092 132.616 197.939 132.616C196.787 132.616 196.244 131.849 196.244 130.663V130.105H197.058V130.663C197.058 131.361 197.329 131.779 197.939 131.779C198.549 131.779 198.82 131.361 198.82 130.663V129.129C198.82 128.431 198.549 128.013 197.939 128.013C197.464 128.013 197.125 128.292 197.058 128.85V129.059H196.244L196.448 124.734H199.431V125.502H197.193L197.058 127.873Z" fill="#078449"/>
<path d="M202.548 125.92V128.361C202.548 129.129 202.209 129.617 201.464 129.617C200.718 129.617 200.379 129.129 200.379 128.361V125.92C200.379 125.153 200.718 124.665 201.464 124.665C202.209 124.595 202.548 125.153 202.548 125.92ZM200.921 125.85V128.431C200.921 128.85 201.057 129.129 201.464 129.129C201.87 129.129 202.006 128.85 202.006 128.431V125.85C202.006 125.432 201.87 125.153 201.464 125.153C201.057 125.153 200.921 125.432 200.921 125.85ZM205.057 124.665L202.074 132.477H201.531L204.515 124.665H205.057ZM206.277 128.78V131.221C206.277 131.989 205.938 132.477 205.193 132.477C204.447 132.477 204.108 131.989 204.108 131.221V128.78C204.108 128.013 204.447 127.524 205.193 127.524C205.938 127.524 206.277 128.082 206.277 128.78ZM204.65 128.78V131.291C204.65 131.71 204.786 131.989 205.193 131.989C205.599 131.989 205.735 131.71 205.735 131.291V128.78C205.735 128.361 205.599 128.082 205.193 128.082C204.786 128.082 204.65 128.361 204.65 128.78Z" fill="#078449"/>
<path d="M56.3041 57.563V52.4013H55.2871V51.8433H57.9312V52.4013H56.9142V57.563H56.3041Z" fill="#078449"/>
<path d="M59.5582 51.8433C60.4396 51.8433 60.7786 52.3315 60.7786 53.1686V53.6568C60.7786 54.2846 60.5752 54.7031 60.1006 54.8426C60.5752 54.9821 60.7786 55.4006 60.7786 56.0284V56.9352C60.7786 57.2142 60.7786 57.4235 60.9142 57.6327H60.304C60.2362 57.4932 60.1684 57.3537 60.1684 56.9352V56.0284C60.1684 55.4006 59.8972 55.1914 59.3549 55.1914H58.9481V57.6327H58.3379V51.913H59.5582V51.8433ZM59.4226 54.4939C59.8972 54.4939 60.2362 54.3544 60.2362 53.7266V53.1686C60.2362 52.6803 60.0328 52.4013 59.626 52.4013H59.0159V54.4939H59.4226Z" fill="#078449"/>
<path d="M63.4212 54.3544V54.9124H62.0653V56.9352H63.7602V57.4932H61.4551V51.7735H63.7602V52.3315H62.0653V54.2846H63.4212V54.3544Z" fill="#078449"/>
<path d="M64.8471 57.563H64.3047V51.8433H65.1183L66.4064 55.9587V51.8433H66.9488V57.563H66.3386L64.9149 52.9593V57.563H64.8471Z" fill="#078449"/>
<path d="M68.8487 51.8433C69.7301 51.8433 70.1368 52.4013 70.1368 53.2383V56.0982C70.1368 57.0049 69.7301 57.4932 68.8487 57.4932H67.5605V51.7735H68.8487V51.8433ZM68.8487 56.9352C69.3233 56.9352 69.5267 56.6562 69.5267 56.0982V53.1686C69.5267 52.6803 69.3233 52.3315 68.8487 52.3315H68.1707V56.9352H68.8487Z" fill="#078449"/>
<g opacity="0.3">
<path d="M55.2188 99.8328V97.0427" stroke="black" stroke-width="0.5" stroke-miterlimit="10" stroke-linecap="round" stroke-linejoin="round"/>
<path opacity="0.3" d="M54.541 90.5557H243.899" stroke="black" stroke-width="0.5" stroke-miterlimit="10" stroke-linecap="round" stroke-linejoin="round"/>
<path opacity="0.3" d="M54.541 96.9032H243.899" stroke="black" stroke-width="0.5" stroke-miterlimit="10" stroke-linecap="round" stroke-linejoin="round"/>
<path opacity="0.3" d="M54.541 84.4873H243.899" stroke="black" stroke-width="0.5" stroke-miterlimit="10" stroke-linecap="round" stroke-linejoin="round"/>
<path opacity="0.3" d="M54.541 78.4886H243.899" stroke="black" stroke-width="0.5" stroke-miterlimit="10" stroke-linecap="round" stroke-linejoin="round"/>
<path opacity="0.3" d="M54.541 72.4899H243.899" stroke="black" stroke-width="0.5" stroke-miterlimit="10" stroke-linecap="round" stroke-linejoin="round"/>
<path opacity="0.3" d="M54.541 66.4215H243.899" stroke="black" stroke-width="0.5" stroke-miterlimit="10" stroke-linecap="round" stroke-linejoin="round"/>
<path opacity="0.3" d="M54.541 60.4228H243.899" stroke="black" stroke-width="0.5" stroke-miterlimit="10" stroke-linecap="round" stroke-linejoin="round"/>
<path opacity="0.3" d="M70.8105 99.8328V97.0427" stroke="black" stroke-width="0.5" stroke-miterlimit="10" stroke-linecap="round" stroke-linejoin="round"/>
<path d="M86.4062 99.8328V97.0427" stroke="black" stroke-width="0.5" stroke-miterlimit="10" stroke-linecap="round" stroke-linejoin="round"/>
<path d="M101.998 99.8328V97.0427" stroke="black" stroke-width="0.5" stroke-miterlimit="10" stroke-linecap="round" stroke-linejoin="round"/>
<path d="M117.594 99.8328V97.0427" stroke="black" stroke-width="0.5" stroke-miterlimit="10" stroke-linecap="round" stroke-linejoin="round"/>
<path d="M133.188 99.8328V97.0427" stroke="black" stroke-width="0.5" stroke-miterlimit="10" stroke-linecap="round" stroke-linejoin="round"/>
<path d="M148.779 99.8328V97.0427" stroke="black" stroke-width="0.5" stroke-miterlimit="10" stroke-linecap="round" stroke-linejoin="round"/>
<path d="M164.373 99.8328V97.0427" stroke="black" stroke-width="0.5" stroke-miterlimit="10" stroke-linecap="round" stroke-linejoin="round"/>
<path d="M179.965 99.8328V97.0427" stroke="black" stroke-width="0.5" stroke-miterlimit="10" stroke-linecap="round" stroke-linejoin="round"/>
<path d="M195.559 99.8328V97.0427" stroke="black" stroke-width="0.5" stroke-miterlimit="10" stroke-linecap="round" stroke-linejoin="round"/>
<path d="M211.221 99.8328V97.0427" stroke="black" stroke-width="0.5" stroke-miterlimit="10" stroke-linecap="round" stroke-linejoin="round"/>
<path d="M226.816 99.8328V97.0427" stroke="black" stroke-width="0.5" stroke-miterlimit="10" stroke-linecap="round" stroke-linejoin="round"/>
<path d="M242.408 99.8328V97.0427" stroke="black" stroke-width="0.5" stroke-miterlimit="10" stroke-linecap="round" stroke-linejoin="round"/>
</g>
<path d="M241.46 95.8569V61.6086L241.528 58.5395L231.494 60.6321L219.019 64.7474L203.764 66.4215L187.9 71.2344L172.849 69.3511L155.832 64.3987L139.425 72.0714L126.543 67.119L109.323 69.3511L94.9495 63.2129L78.4069 87.0681L62.8813 68.0258L55.1523 75.838V95.8569H241.46Z" fill="#92E3A9"/>
<path opacity="0.5" d="M241.46 95.8569V61.6086L241.528 58.5395L231.494 60.6321L219.019 64.7474L203.764 66.4215L187.9 71.2344L172.849 69.3511L155.832 64.3987L139.425 72.0714L126.543 67.119L109.323 69.3511L94.9495 63.2129L78.4069 87.0681L62.8813 68.0258L55.1523 75.838V95.8569H241.46Z" fill="white"/>
<path opacity="0.15" d="M241.592 95.8569V84.3478V82.9528L231.491 78.7676L219.016 75.838L203.761 77.5121L187.897 80.4417L172.846 78.2096L155.829 76.5356L139.422 76.8843L126.54 80.6509L109.319 83.72L94.9464 80.6509L78.4038 82.1855L62.8782 83.9293L55.3527 84.9058H55.0137V95.8569H241.592Z" fill="black"/>
<path d="M62.8802 84.9756C63.4419 84.9756 63.8972 84.5071 63.8972 83.9293C63.8972 83.3514 63.4419 82.883 62.8802 82.883C62.3186 82.883 61.8633 83.3514 61.8633 83.9293C61.8633 84.5071 62.3186 84.9756 62.8802 84.9756Z" fill="#078449"/>
<path d="M79.4226 82.1855C79.4226 81.6275 78.948 81.1392 78.4056 81.1392C77.8633 81.1392 77.3887 81.6275 77.3887 82.1855C77.3887 82.7435 77.8633 83.2318 78.4056 83.2318C78.948 83.2318 79.4226 82.7435 79.4226 82.1855Z" fill="#078449"/>
<path d="M94.9506 81.6972C95.5122 81.6972 95.9675 81.2288 95.9675 80.6509C95.9675 80.0731 95.5122 79.6046 94.9506 79.6046C94.3889 79.6046 93.9336 80.0731 93.9336 80.6509C93.9336 81.2288 94.3889 81.6972 94.9506 81.6972Z" fill="#078449"/>
<path d="M109.32 84.7663C109.881 84.7663 110.337 84.2979 110.337 83.72C110.337 83.1422 109.881 82.6737 109.32 82.6737C108.758 82.6737 108.303 83.1422 108.303 83.72C108.303 84.2979 108.758 84.7663 109.32 84.7663Z" fill="#078449"/>
<path d="M126.542 81.6972C127.104 81.6972 127.559 81.2288 127.559 80.6509C127.559 80.0731 127.104 79.6046 126.542 79.6046C125.981 79.6046 125.525 80.0731 125.525 80.6509C125.525 81.2288 125.981 81.6972 126.542 81.6972Z" fill="#078449"/>
<path d="M139.423 77.9306C139.985 77.9306 140.44 77.4622 140.44 76.8843C140.44 76.3065 139.985 75.838 139.423 75.838C138.862 75.838 138.406 76.3065 138.406 76.8843C138.406 77.4622 138.862 77.9306 139.423 77.9306Z" fill="#078449"/>
<path d="M155.831 77.5818C156.393 77.5818 156.848 77.1134 156.848 76.5355C156.848 75.9577 156.393 75.4893 155.831 75.4893C155.27 75.4893 154.814 75.9577 154.814 76.5355C154.814 77.1134 155.27 77.5818 155.831 77.5818Z" fill="#078449"/>
<path d="M173.862 78.2096C173.862 77.6516 173.387 77.1633 172.845 77.1633C172.303 77.1633 171.828 77.6516 171.828 78.2096C171.828 78.7676 172.303 79.2559 172.845 79.2559C173.387 79.2559 173.862 78.8374 173.862 78.2096Z" fill="#078449"/>
<path d="M187.898 81.4879C188.459 81.4879 188.915 81.0195 188.915 80.4417C188.915 79.8638 188.459 79.3954 187.898 79.3954C187.336 79.3954 186.881 79.8638 186.881 80.4417C186.881 81.0195 187.336 81.4879 187.898 81.4879Z" fill="#078449"/>
<path d="M203.761 78.5584C204.323 78.5584 204.778 78.0899 204.778 77.5121C204.778 76.9342 204.323 76.4658 203.761 76.4658C203.199 76.4658 202.744 76.9342 202.744 77.5121C202.744 78.0899 203.199 78.5584 203.761 78.5584Z" fill="#078449"/>
<path d="M219.017 76.8843C219.579 76.8843 220.034 76.4159 220.034 75.838C220.034 75.2602 219.579 74.7917 219.017 74.7917C218.455 74.7917 218 75.2602 218 75.838C218 76.4159 218.455 76.8843 219.017 76.8843Z" fill="#078449"/>
<path d="M232.509 78.7676C232.509 78.2096 232.034 77.7213 231.492 77.7213C230.949 77.7213 230.475 78.2096 230.475 78.7676C230.475 79.3256 230.949 79.8139 231.492 79.8139C232.102 79.8139 232.509 79.3256 232.509 78.7676Z" fill="#078449"/>
<g opacity="0.3">
<path d="M62.8802 69.0721C63.4419 69.0721 63.8972 68.6036 63.8972 68.0258C63.8972 67.4479 63.4419 66.9795 62.8802 66.9795C62.3186 66.9795 61.8633 67.4479 61.8633 68.0258C61.8633 68.6036 62.3186 69.0721 62.8802 69.0721Z" fill="black"/>
<path d="M78.4056 88.1144C78.9673 88.1144 79.4226 87.646 79.4226 87.0681C79.4226 86.4903 78.9673 86.0218 78.4056 86.0218C77.844 86.0218 77.3887 86.4903 77.3887 87.0681C77.3887 87.646 77.844 88.1144 78.4056 88.1144Z" fill="black"/>
<path d="M95.9675 63.2129C95.9675 62.6549 95.4929 62.1666 94.9506 62.1666C94.4082 62.1666 93.9336 62.6549 93.9336 63.2129C93.9336 63.7709 94.4082 64.2592 94.9506 64.2592C95.4929 64.1894 95.9675 63.7709 95.9675 63.2129Z" fill="black"/>
<path d="M109.32 70.3974C109.881 70.3974 110.337 69.9289 110.337 69.3511C110.337 68.7732 109.881 68.3048 109.32 68.3048C108.758 68.3048 108.303 68.7732 108.303 69.3511C108.303 69.9289 108.758 70.3974 109.32 70.3974Z" fill="black"/>
<path d="M127.559 67.119C127.559 66.561 127.085 66.0727 126.542 66.0727C126 66.0727 125.525 66.561 125.525 67.119C125.525 67.677 126 68.1653 126.542 68.1653C127.085 68.1653 127.559 67.677 127.559 67.119Z" fill="black"/>
<path d="M139.423 72.7689C139.985 72.7689 140.44 72.3005 140.44 71.7227C140.44 71.1448 139.985 70.6764 139.423 70.6764C138.862 70.6764 138.406 71.1448 138.406 71.7227C138.406 72.3005 138.862 72.7689 139.423 72.7689Z" fill="black"/>
<path d="M155.831 65.445C156.393 65.445 156.848 64.9765 156.848 64.3987C156.848 63.8208 156.393 63.3524 155.831 63.3524C155.27 63.3524 154.814 63.8208 154.814 64.3987C154.814 64.9765 155.27 65.445 155.831 65.445Z" fill="black"/>
<path d="M172.845 70.3974C173.407 70.3974 173.862 69.9289 173.862 69.3511C173.862 68.7732 173.407 68.3048 172.845 68.3048C172.283 68.3048 171.828 68.7732 171.828 69.3511C171.828 69.9289 172.283 70.3974 172.845 70.3974Z" fill="black"/>
<path d="M187.898 72.2807C188.459 72.2807 188.915 71.8122 188.915 71.2344C188.915 70.6565 188.459 70.1881 187.898 70.1881C187.336 70.1881 186.881 70.6565 186.881 71.2344C186.881 71.8122 187.336 72.2807 187.898 72.2807Z" fill="black"/>
<path d="M203.761 67.4678C204.323 67.4678 204.778 66.9993 204.778 66.4215C204.778 65.8436 204.323 65.3752 203.761 65.3752C203.199 65.3752 202.744 65.8436 202.744 66.4215C202.744 66.9993 203.199 67.4678 203.761 67.4678Z" fill="black"/>
<path d="M219.017 65.7937C219.579 65.7937 220.034 65.3253 220.034 64.7474C220.034 64.1696 219.579 63.7011 219.017 63.7011C218.455 63.7011 218 64.1696 218 64.7474C218 65.3253 218.455 65.7937 219.017 65.7937Z" fill="black"/>
<path d="M231.492 61.6783C232.053 61.6783 232.509 61.2099 232.509 60.6321C232.509 60.0542 232.053 59.5858 231.492 59.5858C230.93 59.5858 230.475 60.0542 230.475 60.6321C230.475 61.2099 230.93 61.6783 231.492 61.6783Z" fill="black"/>
</g>
<path d="M229.323 56.0284V57.6327H228.509V56.0284H226.068V55.2611L228.441 49.8205H229.39V55.2611H230.001V56.0284H229.323ZM226.814 55.1914H228.509V51.355L226.814 55.1914Z" fill="#078449"/>
<path d="M231.425 52.9593C231.696 52.5408 232.035 52.3315 232.577 52.3315C233.527 52.3315 234.001 53.0988 234.001 54.2148V55.7494C234.001 56.9352 233.459 57.7025 232.306 57.7025C231.154 57.7025 230.611 56.9352 230.611 55.7494V55.1914H231.425V55.7494C231.425 56.4469 231.696 56.8654 232.306 56.8654C232.916 56.8654 233.188 56.4469 233.188 55.7494V54.2148C233.188 53.5173 232.916 53.0988 232.306 53.0988C231.832 53.0988 231.493 53.3778 231.425 53.9358V54.1451H230.611L230.815 49.8205H233.798V50.5877H231.56L231.425 52.9593Z" fill="#078449"/>
<path d="M236.916 51.0062V53.4476C236.916 54.2148 236.577 54.7031 235.831 54.7031C235.085 54.7031 234.746 54.2148 234.746 53.4476V51.0062C234.746 50.239 235.085 49.7507 235.831 49.7507C236.509 49.7507 236.916 50.239 236.916 51.0062ZM235.288 50.9365V53.5173C235.288 53.9358 235.424 54.2148 235.831 54.2148C236.238 54.2148 236.373 53.9358 236.373 53.5173V50.9365C236.373 50.518 236.238 50.239 235.831 50.239C235.424 50.239 235.288 50.518 235.288 50.9365ZM239.424 49.7507L236.441 57.563H235.899L238.882 49.7507H239.424ZM240.644 53.9358V56.3772C240.644 57.1444 240.305 57.6327 239.56 57.6327C238.814 57.6327 238.475 57.1444 238.475 56.3772V53.9358C238.475 53.1686 238.814 52.6803 239.56 52.6803C240.305 52.6803 240.644 53.1686 240.644 53.9358ZM239.017 53.8661V56.3772C239.017 56.7957 239.153 57.0747 239.56 57.0747C239.967 57.0747 240.102 56.7957 240.102 56.3772V53.8661C240.102 53.4476 239.967 53.1686 239.56 53.1686C239.153 53.1686 239.017 53.4476 239.017 53.8661Z" fill="#078449"/>
<path d="M229.663 85.6731C229.663 88.0447 227.087 88.8817 227.087 90.6952V90.8347H229.596V91.602H226.273V90.9045C226.273 88.3934 228.85 87.9051 228.85 85.6731C228.85 84.8361 228.579 84.4175 227.968 84.4175C227.358 84.4175 227.087 84.9058 227.087 85.5336V86.2311H226.273V85.6033C226.273 84.4175 226.816 83.5805 227.968 83.5805C229.121 83.72 229.663 84.4873 229.663 85.6731Z" fill="#078449"/>
<path d="M230.342 85.6731C230.342 84.4873 230.884 83.72 232.105 83.72C233.257 83.72 233.867 84.4873 233.867 85.6731V89.7187C233.867 90.9045 233.325 91.6718 232.105 91.6718C230.952 91.6718 230.342 90.9045 230.342 89.7187V85.6731ZM231.155 89.7885C231.155 90.486 231.427 90.9045 232.037 90.9045C232.647 90.9045 232.918 90.486 232.918 89.7885V85.6731C232.918 84.9756 232.647 84.557 232.037 84.557C231.427 84.557 231.155 84.9756 231.155 85.6731V89.7885Z" fill="#078449"/>
<path d="M236.783 84.9756V87.4169C236.783 88.1842 236.444 88.6724 235.698 88.6724C234.952 88.6724 234.613 88.1842 234.613 87.4169V84.9756C234.613 84.2083 234.952 83.72 235.698 83.72C236.444 83.72 236.783 84.278 236.783 84.9756ZM235.156 84.9756V87.5564C235.156 87.9749 235.291 88.2539 235.698 88.2539C236.105 88.2539 236.24 87.9749 236.24 87.5564V84.9756C236.24 84.557 236.105 84.278 235.698 84.278C235.291 84.278 235.156 84.557 235.156 84.9756ZM239.291 83.7898L236.308 91.602H235.766L238.749 83.7898H239.291ZM240.512 87.9052V90.3465C240.512 91.1138 240.173 91.602 239.427 91.602C238.681 91.602 238.342 91.1138 238.342 90.3465V87.9052C238.342 87.1379 238.681 86.6496 239.427 86.6496C240.173 86.6496 240.512 87.1379 240.512 87.9052ZM238.885 87.9052V90.4162C238.885 90.8347 239.02 91.1138 239.427 91.1138C239.834 91.1138 239.969 90.8347 239.969 90.4162V87.9052C239.969 87.4866 239.834 87.2076 239.427 87.2076C239.02 87.2076 238.885 87.4866 238.885 87.9052Z" fill="#078449"/>
<path d="M108.104 117.55H103.223V122.572H108.104V117.55Z" fill="#078449"/>
<path d="M111.156 120.061H131.157" stroke="#078449" stroke-miterlimit="10" stroke-linejoin="round"/>
<path d="M108.104 126.687H103.223V131.71H108.104V126.687Z" fill="#92E3A9"/>
<path d="M111.156 129.198H131.157" stroke="#078449" stroke-miterlimit="10" stroke-linejoin="round"/>
<path d="M108.104 135.825H103.223V140.847H108.104V135.825Z" fill="#7D7D7D"/>
<path d="M111.156 138.336H131.157" stroke="#078449" stroke-miterlimit="10" stroke-linejoin="round"/>
<path d="M82.6133 144.195C88.9185 141.475 93.3253 135.058 93.3253 127.594C93.3253 123.27 91.8337 119.363 89.393 116.294" stroke="#92E3A9" stroke-width="7" stroke-miterlimit="10" stroke-linejoin="round"/>
<path d="M61.1191 137.499C64.2378 142.382 69.6616 145.66 75.7634 145.66C78.2041 145.66 80.5092 145.172 82.5432 144.265" stroke="#7D7D7D" stroke-width="7" stroke-miterlimit="10" stroke-linejoin="round"/>
<path d="M89.3925 116.294C86.206 112.249 81.2568 109.598 75.7652 109.598C66.0702 109.598 58.2734 117.689 58.2734 127.594C58.2734 131.221 59.2904 134.639 61.1209 137.429" stroke="#078449" stroke-width="7" stroke-miterlimit="10" stroke-linejoin="round"/>
<path d="M68.375 125.641H83.6972" stroke="#078449" stroke-miterlimit="10" stroke-linejoin="round"/>
<path d="M68.375 130.314H83.6972" stroke="#078449" stroke-miterlimit="10" stroke-linejoin="round"/>
<path d="M221.596 124.107H241.732" stroke="#078449" stroke-miterlimit="10" stroke-linecap="round" stroke-linejoin="round"/>
<path d="M221.596 126.478H241.732" stroke="#078449" stroke-miterlimit="10" stroke-linecap="round" stroke-linejoin="round"/>
<path d="M240.107 113.016C238.683 110.993 236.988 109.738 234.683 108.97C232.378 108.203 230.276 108.203 227.971 108.97C225.666 109.738 223.971 111.063 222.547 113.016C221.123 115.039 220.445 117.131 220.445 119.573H231.293H242.141C242.208 117.131 241.53 115.039 240.107 113.016Z" fill="#92E3A9"/>
<path d="M231.357 119.573L240.103 113.016C241.527 115.039 242.205 117.131 242.205 119.573H231.357Z" stroke="white" stroke-width="0.5" stroke-miterlimit="10" stroke-linecap="round" stroke-linejoin="round"/>
<path d="M231.357 119.573L234.679 108.97C236.985 109.738 238.68 111.063 240.103 113.016L231.357 119.573Z" stroke="white" stroke-width="0.5" stroke-miterlimit="10" stroke-linecap="round" stroke-linejoin="round"/>
<path d="M231.357 119.573L228.035 108.97C230.34 108.203 232.442 108.203 234.747 108.97L231.357 119.573Z" stroke="white" stroke-width="0.5" stroke-miterlimit="10" stroke-linecap="round" stroke-linejoin="round"/>
<path d="M231.361 119.573L222.615 113.016C224.039 110.993 225.734 109.738 228.039 108.97L231.361 119.573Z" stroke="white" stroke-width="0.5" stroke-miterlimit="10" stroke-linecap="round" stroke-linejoin="round"/>
<path d="M231.359 119.573H220.512C220.512 117.131 221.19 115.039 222.613 113.016L231.359 119.573Z" stroke="white" stroke-width="0.5" stroke-miterlimit="10" stroke-linecap="round" stroke-linejoin="round"/>
<path d="M232.651 119.573C232.651 118.805 232.04 118.247 231.362 118.247C230.617 118.247 230.074 118.875 230.074 119.573C230.074 120.34 230.684 120.898 231.362 120.898C232.108 120.898 232.651 120.34 232.651 119.573Z" fill="#078449"/>
<path d="M231.363 119.573L235.838 112.876" stroke="#078449" stroke-miterlimit="10" stroke-linecap="round" stroke-linejoin="round"/>
<path d="M221.596 146.427H241.732" stroke="#078449" stroke-miterlimit="10" stroke-linecap="round" stroke-linejoin="round"/>
<path d="M221.596 148.799H241.732" stroke="#078449" stroke-miterlimit="10" stroke-linecap="round" stroke-linejoin="round"/>
<path d="M240.107 135.337C238.683 133.314 236.988 132.058 234.683 131.291C232.378 130.524 230.276 130.524 227.971 131.291C225.666 132.058 223.971 133.314 222.547 135.337C221.123 137.359 220.445 139.452 220.445 141.893H231.293H242.141C242.208 139.452 241.53 137.359 240.107 135.337Z" fill="#92E3A9"/>
<path d="M231.357 141.893L240.103 135.337C241.527 137.359 242.205 139.452 242.205 141.893H231.357Z" stroke="white" stroke-width="0.5" stroke-miterlimit="10" stroke-linecap="round" stroke-linejoin="round"/>
<path d="M231.357 141.893L234.679 131.291C236.985 132.058 238.68 133.314 240.103 135.337L231.357 141.893Z" stroke="white" stroke-width="0.5" stroke-miterlimit="10" stroke-linecap="round" stroke-linejoin="round"/>
<path d="M231.357 141.893L228.035 131.291C230.34 130.524 232.442 130.524 234.747 131.291L231.357 141.893Z" stroke="white" stroke-width="0.5" stroke-miterlimit="10" stroke-linecap="round" stroke-linejoin="round"/>
<path d="M231.361 141.893L222.615 135.337C224.039 133.314 225.734 132.058 228.039 131.291L231.361 141.893Z" stroke="white" stroke-width="0.5" stroke-miterlimit="10" stroke-linecap="round" stroke-linejoin="round"/>
<path d="M231.359 141.893H220.512C220.512 139.452 221.19 137.359 222.613 135.337L231.359 141.893Z" stroke="white" stroke-width="0.5" stroke-miterlimit="10" stroke-linecap="round" stroke-linejoin="round"/>
<path d="M232.651 141.893C232.651 141.126 232.04 140.568 231.362 140.568C230.617 140.568 230.074 141.196 230.074 141.893C230.074 142.661 230.684 143.219 231.362 143.219C232.108 143.219 232.651 142.661 232.651 141.893Z" fill="#078449"/>
<path d="M231.362 141.893L227.023 135.546" stroke="#078449" stroke-miterlimit="10" stroke-linecap="round" stroke-linejoin="round"/>
<path d="M241.12 168.748H220.984" stroke="#078449" stroke-miterlimit="10" stroke-linecap="round" stroke-linejoin="round"/>
<path d="M241.12 171.12H220.984" stroke="#078449" stroke-miterlimit="10" stroke-linecap="round" stroke-linejoin="round"/>
<path d="M222.615 157.657C224.038 155.635 225.733 154.379 228.039 153.612C230.344 152.844 232.445 152.844 234.75 153.612C237.056 154.379 238.751 155.704 240.174 157.657C241.598 159.68 242.276 161.773 242.276 164.214H231.428H220.581C220.513 161.773 221.191 159.68 222.615 157.657Z" fill="#92E3A9"/>
<path d="M231.359 164.214L222.613 157.657C221.19 159.68 220.512 161.773 220.512 164.214H231.359Z" stroke="white" stroke-width="0.5" stroke-miterlimit="10" stroke-linecap="round" stroke-linejoin="round"/>
<path d="M231.361 164.214L228.039 153.612C225.734 154.379 224.039 155.704 222.615 157.657L231.361 164.214Z" stroke="white" stroke-width="0.5" stroke-miterlimit="10" stroke-linecap="round" stroke-linejoin="round"/>
<path d="M231.359 164.214L234.681 153.612C232.376 152.844 230.274 152.844 227.969 153.612L231.359 164.214Z" stroke="white" stroke-width="0.5" stroke-miterlimit="10" stroke-linecap="round" stroke-linejoin="round"/>
<path d="M231.357 164.214L240.103 157.657C238.68 155.635 236.985 154.379 234.679 153.612L231.357 164.214Z" stroke="white" stroke-width="0.5" stroke-miterlimit="10" stroke-linecap="round" stroke-linejoin="round"/>
<path d="M231.357 164.214H242.205C242.205 161.773 241.527 159.68 240.103 157.657L231.357 164.214Z" stroke="white" stroke-width="0.5" stroke-miterlimit="10" stroke-linecap="round" stroke-linejoin="round"/>
<path d="M230.07 164.214C230.07 163.447 230.68 162.889 231.358 162.889C232.104 162.889 232.647 163.517 232.647 164.214C232.647 164.981 232.036 165.539 231.358 165.539C230.613 165.539 230.07 164.981 230.07 164.214Z" fill="#078449"/>
<path d="M231.358 164.214L223.357 160.936" stroke="#078449" stroke-miterlimit="10" stroke-linecap="round" stroke-linejoin="round"/>
<path d="M221.596 191.069H241.732" stroke="#078449" stroke-miterlimit="10" stroke-linecap="round" stroke-linejoin="round"/>
<path d="M221.596 193.44H241.732" stroke="#078449" stroke-miterlimit="10" stroke-linecap="round" stroke-linejoin="round"/>
<path d="M240.107 179.978C238.683 177.955 236.988 176.7 234.683 175.932C232.378 175.165 230.276 175.165 227.971 175.932C225.666 176.7 223.971 178.025 222.547 179.978C221.123 182.001 220.445 184.093 220.445 186.535H231.293H242.141C242.208 184.093 241.53 182.001 240.107 179.978Z" fill="#92E3A9"/>
<path d="M231.357 186.535L240.103 179.978C241.527 182.001 242.205 184.093 242.205 186.535H231.357Z" stroke="white" stroke-width="0.5" stroke-miterlimit="10" stroke-linecap="round" stroke-linejoin="round"/>
<path d="M231.357 186.535L234.679 175.932C236.985 176.7 238.68 178.025 240.103 179.978L231.357 186.535Z" stroke="white" stroke-width="0.5" stroke-miterlimit="10" stroke-linecap="round" stroke-linejoin="round"/>
<path d="M231.357 186.535L228.035 175.932C230.34 175.165 232.442 175.165 234.747 175.932L231.357 186.535Z" stroke="white" stroke-width="0.5" stroke-miterlimit="10" stroke-linecap="round" stroke-linejoin="round"/>
<path d="M231.361 186.535L222.615 179.978C224.039 177.955 225.734 176.7 228.039 175.932L231.361 186.535Z" stroke="white" stroke-width="0.5" stroke-miterlimit="10" stroke-linecap="round" stroke-linejoin="round"/>
<path d="M231.359 186.535H220.512C220.512 184.093 221.19 182.001 222.613 179.978L231.359 186.535Z" stroke="white" stroke-width="0.5" stroke-miterlimit="10" stroke-linecap="round" stroke-linejoin="round"/>
<path d="M232.647 186.535C232.647 185.767 232.036 185.209 231.358 185.209C230.613 185.209 230.07 185.837 230.07 186.535C230.07 187.302 230.68 187.86 231.358 187.86C232.104 187.86 232.647 187.302 232.647 186.535Z" fill="#078449"/>
<path d="M231.36 186.535H221.529" stroke="#078449" stroke-miterlimit="10" stroke-linecap="round" stroke-linejoin="round"/>
<path d="M195.969 32.1034C196.85 32.2429 197.257 32.9404 197.257 33.917V34.1262H196.511V33.8472C196.511 33.2194 196.24 32.8009 195.697 32.8009C195.155 32.8009 194.884 33.2194 194.884 33.8472C194.884 35.5213 197.325 35.5213 197.325 37.6138C197.325 38.5904 196.918 39.3576 196.036 39.4274V39.9854H195.358V39.4971C194.477 39.3576 194.07 38.6601 194.07 37.6836V37.1953H194.816V37.6836C194.816 38.3811 195.087 38.7299 195.697 38.7299C196.308 38.7299 196.579 38.3113 196.579 37.6836C196.579 36.0095 194.138 36.0095 194.138 33.917C194.138 32.8707 194.545 32.2429 195.426 32.1034V31.4756H196.104V32.1034H195.969Z" fill="white"/>
<path d="M201.254 33.8472V34.0565C201.254 34.8237 200.983 35.3818 200.373 35.591C200.983 35.8003 201.254 36.3583 201.254 37.1256V37.6836C201.254 38.7996 200.712 39.5669 199.627 39.5669C198.542 39.5669 198 38.7996 198 37.6836V37.1953H198.746V37.7533C198.746 38.4509 199.017 38.7996 199.627 38.7996C200.237 38.7996 200.509 38.3811 200.509 37.6138V37.0558C200.509 36.2885 200.237 35.9398 199.627 35.9398H199.22V35.2423H199.695C200.237 35.2423 200.576 34.8935 200.576 34.196V33.8472C200.576 33.0799 200.305 32.6614 199.695 32.6614C199.085 32.6614 198.814 33.0799 198.814 33.7775V34.196H198.068V33.8472C198.068 32.7312 198.61 31.9639 199.695 31.9639C200.78 31.9639 201.254 32.7312 201.254 33.8472Z" fill="white"/>
<path d="M205.326 33.8472C205.326 36.0793 202.885 36.9163 202.885 38.5904V38.7299H205.258V39.4971H202.072V38.8694C202.072 36.428 204.512 36.0095 204.512 33.917C204.512 33.1497 204.241 32.7312 203.631 32.7312C203.021 32.7312 202.75 33.1497 202.75 33.8472V34.475H202.004V33.8472C202.004 32.7312 202.478 31.9639 203.631 31.9639C204.851 31.9639 205.326 32.7312 205.326 33.8472Z" fill="white"/>
<path d="M206.41 39.4971H206.139V38.4509H206.884V39.4274L206.478 40.4737H206.139L206.41 39.4971Z" fill="white"/>
<path d="M208.579 35.1027C208.783 34.6842 209.189 34.475 209.664 34.475C210.613 34.475 211.02 35.1725 211.02 36.2188V37.6836C211.02 38.7996 210.478 39.5669 209.393 39.5669C208.308 39.5669 207.766 38.7996 207.766 37.6836V37.1953H208.511V37.7533C208.511 38.4509 208.783 38.7996 209.393 38.7996C210.003 38.7996 210.274 38.3811 210.274 37.7533V36.2885C210.274 35.591 210.003 35.2423 209.393 35.2423C208.918 35.2423 208.647 35.5213 208.579 36.0095V36.149H207.833L208.037 32.0337H210.884V32.8009H208.783L208.579 35.1027Z" fill="white"/>
<path d="M215.021 33.8472V33.9867H214.276V33.7775C214.276 33.0799 214.004 32.7312 213.394 32.7312C212.784 32.7312 212.513 33.1497 212.513 33.917V35.591C212.716 35.1027 213.123 34.8237 213.665 34.8237C214.615 34.8237 215.021 35.5213 215.021 36.5675V37.6836C215.021 38.7996 214.479 39.5669 213.394 39.5669C212.242 39.5669 211.699 38.7996 211.699 37.6836V33.917C211.699 32.7312 212.242 31.9639 213.394 31.9639C214.479 31.9639 215.021 32.6614 215.021 33.8472ZM212.513 36.6373V37.7533C212.513 38.4509 212.784 38.7996 213.394 38.7996C214.004 38.7996 214.276 38.3811 214.276 37.7533V36.6373C214.276 35.9398 214.004 35.591 213.394 35.591C212.784 35.5213 212.513 35.9398 212.513 36.6373Z" fill="white"/>
<path d="M219.019 33.8472V37.6836C219.019 38.8694 218.477 39.6366 217.324 39.6366C216.24 39.6366 215.697 38.8694 215.697 37.7533V37.6138H216.443V37.8231C216.443 38.5206 216.714 38.8694 217.324 38.8694C217.935 38.8694 218.206 38.4509 218.206 37.6836V36.0095C218.002 36.4978 217.596 36.7768 217.053 36.7768C216.104 36.7768 215.697 36.0793 215.697 35.033V33.8472C215.697 32.7312 216.24 31.9639 217.324 31.9639C218.477 31.9639 219.019 32.7312 219.019 33.8472ZM216.511 33.7775V34.8935C216.511 35.591 216.782 35.9398 217.392 35.9398C218.002 35.9398 218.274 35.5213 218.274 34.8935V33.7775C218.274 33.0799 218.002 32.7312 217.392 32.7312C216.782 32.7312 216.511 33.1497 216.511 33.7775Z" fill="white"/>
<path d="M220.172 39.4971H219.9V38.4509H220.646V39.4274L220.239 40.4737H219.9L220.172 39.4971Z" fill="white"/>
<path d="M224.781 33.7775V33.9867C224.781 34.754 224.509 35.312 223.967 35.5213C224.577 35.8003 224.781 36.3583 224.781 37.1256V37.6836C224.781 38.8694 224.17 39.5669 223.086 39.5669C221.933 39.5669 221.391 38.8694 221.391 37.6836V37.1256C221.391 36.3583 221.594 35.8003 222.204 35.5213C221.594 35.312 221.391 34.754 221.391 33.9867V33.7775C221.391 32.5917 222.001 31.9639 223.086 31.9639C224.238 31.9639 224.781 32.6614 224.781 33.7775ZM222.204 33.8472V34.196C222.204 34.8935 222.543 35.2423 223.086 35.2423C223.628 35.2423 223.967 34.8935 223.967 34.196V33.8472C223.967 33.0799 223.628 32.7312 223.086 32.7312C222.543 32.7312 222.204 33.0799 222.204 33.8472ZM222.204 37.0558V37.6836C222.204 38.4509 222.543 38.7996 223.086 38.7996C223.696 38.7996 223.967 38.4509 223.967 37.6836V37.0558C223.967 36.3583 223.628 36.0095 223.086 36.0095C222.475 36.0095 222.204 36.3583 222.204 37.0558Z" fill="white"/>
<path d="M228.785 33.8472V37.6836C228.785 38.8694 228.243 39.6366 227.09 39.6366C226.005 39.6366 225.463 38.8694 225.463 37.7533V37.6138H226.209V37.8231C226.209 38.5206 226.48 38.8694 227.09 38.8694C227.7 38.8694 227.971 38.4509 227.971 37.6836V36.0095C227.768 36.4978 227.361 36.7768 226.819 36.7768C225.87 36.7768 225.463 36.0793 225.463 35.033V33.8472C225.463 32.7312 226.005 31.9639 227.09 31.9639C228.243 31.9639 228.785 32.7312 228.785 33.8472ZM226.276 33.7775V34.8935C226.276 35.591 226.548 35.9398 227.158 35.9398C227.768 35.9398 228.039 35.5213 228.039 34.8935V33.7775C228.039 33.0799 227.768 32.7312 227.158 32.7312C226.548 32.7312 226.276 33.1497 226.276 33.7775Z" fill="white"/>
<path d="M232.784 33.8472V34.0565C232.784 34.8237 232.512 35.3818 231.902 35.591C232.512 35.8003 232.784 36.3583 232.784 37.1256V37.6836C232.784 38.7996 232.241 39.5669 231.156 39.5669C230.072 39.5669 229.529 38.7996 229.529 37.6836V37.1953H230.275V37.7533C230.275 38.4509 230.546 38.7996 231.156 38.7996C231.767 38.7996 232.038 38.3811 232.038 37.6138V37.0558C232.038 36.2885 231.767 35.9398 231.156 35.9398H230.75V35.2423H231.224C231.767 35.2423 232.106 34.8935 232.106 34.196V33.8472C232.106 33.0799 231.834 32.6614 231.224 32.6614C230.614 32.6614 230.343 33.0799 230.343 33.7775V34.196H229.597V33.8472C229.597 32.7312 230.139 31.9639 231.224 31.9639C232.309 31.9639 232.784 32.7312 232.784 33.8472Z" fill="white"/>
<path d="M234.343 38.4509V39.4971H233.598V38.4509H234.343Z" fill="white"/>
<path d="M235.154 33.8472C235.154 32.7312 235.697 31.9639 236.781 31.9639C237.934 31.9639 238.476 32.7312 238.476 33.8472V37.6836C238.476 38.7996 237.934 39.5669 236.781 39.5669C235.697 39.5669 235.154 38.7996 235.154 37.6836V33.8472ZM235.9 37.7533C235.9 38.4509 236.171 38.7996 236.781 38.7996C237.392 38.7996 237.663 38.3811 237.663 37.7533V33.7775C237.663 33.0799 237.392 32.6614 236.781 32.6614C236.171 32.6614 235.9 33.0799 235.9 33.7775V37.7533Z" fill="white"/>
<path d="M242.479 33.8472V34.0565C242.479 34.8237 242.208 35.3818 241.598 35.591C242.208 35.8003 242.479 36.3583 242.479 37.1256V37.6836C242.479 38.7996 241.937 39.5669 240.852 39.5669C239.767 39.5669 239.225 38.7996 239.225 37.6836V37.1953H239.97V37.7533C239.97 38.4509 240.242 38.7996 240.852 38.7996C241.462 38.7996 241.733 38.3811 241.733 37.6138V37.0558C241.733 36.2885 241.462 35.9398 240.852 35.9398H240.445V35.2423H240.92C241.462 35.2423 241.801 34.8935 241.801 34.196V33.8472C241.801 33.0799 241.53 32.6614 240.92 32.6614C240.309 32.6614 240.038 33.0799 240.038 33.7775V34.196H239.292V33.8472C239.292 32.7312 239.835 31.9639 240.92 31.9639C241.937 31.9639 242.479 32.7312 242.479 33.8472Z" fill="white"/>
</g>
</g>
<defs>
<filter id="filter0_d_749_126" x="0.478516" y="0.178467" width="287.521" height="250.966" filterUnits="userSpaceOnUse" color-interpolation-filters="sRGB">
<feFlood flood-opacity="0" result="BackgroundImageFix"/>
<feColorMatrix in="SourceAlpha" type="matrix" values="0 0 0 0 0 0 0 0 0 0 0 0 0 0 0 0 0 0 127 0" result="hardAlpha"/>
<feMorphology radius="2" operator="dilate" in="SourceAlpha" result="effect1_dropShadow_749_126"/>
<feOffset/>
<feGaussianBlur stdDeviation="2"/>
<feComposite in2="hardAlpha" operator="out"/>
<feColorMatrix type="matrix" values="0 0 0 0 0 0 0 0 0 0 0 0 0 0 0 0 0 0 0.11 0"/>
<feBlend mode="normal" in2="BackgroundImageFix" result="effect1_dropShadow_749_126"/>
<feBlend mode="normal" in="SourceGraphic" in2="effect1_dropShadow_749_126" result="shape"/>
</filter>
<filter id="filter1_d_749_126" x="17.502" y="31.4756" width="237.611" height="186.508" filterUnits="userSpaceOnUse" color-interpolation-filters="sRGB">
<feFlood flood-opacity="0" result="BackgroundImageFix"/>
<feColorMatrix in="SourceAlpha" type="matrix" values="0 0 0 0 0 0 0 0 0 0 0 0 0 0 0 0 0 0 127 0" result="hardAlpha"/>
<feOffset dy="4"/>
<feGaussianBlur stdDeviation="2"/>
<feComposite in2="hardAlpha" operator="out"/>
<feColorMatrix type="matrix" values="0 0 0 0 0 0 0 0 0 0 0 0 0 0 0 0 0 0 0.1 0"/>
<feBlend mode="normal" in2="BackgroundImageFix" result="effect1_dropShadow_749_126"/>
<feBlend mode="normal" in="SourceGraphic" in2="effect1_dropShadow_749_126" result="shape"/>
</filter>
<clipPath id="clip0_749_126">
<rect width="225.91" height="191.89" fill="white" transform="translate(31.2852 29.7163)"/>
</clipPath>
</defs>
</svg>
